<?xml version="1.0" encoding="utf-8" standalone="no"?>
<!DOCTYPE svg PUBLIC "-//W3C//DTD SVG 1.1//EN"
  "http://www.w3.org/Graphics/SVG/1.1/DTD/svg11.dtd">
<svg xmlns:xlink="http://www.w3.org/1999/xlink" width="623.740362pt" height="186.366269pt" viewBox="0 0 623.740362 186.366269" xmlns="http://www.w3.org/2000/svg" version="1.1">
 <metadata>
  <rdf:RDF xmlns:dc="http://purl.org/dc/elements/1.1/" xmlns:cc="http://creativecommons.org/ns#" xmlns:rdf="http://www.w3.org/1999/02/22-rdf-syntax-ns#">
   <cc:Work>
    <dc:type rdf:resource="http://purl.org/dc/dcmitype/StillImage"/>
    <dc:date>2024-10-05T19:38:17.257156</dc:date>
    <dc:format>image/svg+xml</dc:format>
    <dc:creator>
     <cc:Agent>
      <dc:title>Matplotlib v3.5.1, https://matplotlib.org/</dc:title>
     </cc:Agent>
    </dc:creator>
   </cc:Work>
  </rdf:RDF>
 </metadata>
 <defs>
  <style type="text/css">*{stroke-linejoin: round; stroke-linecap: butt}</style>
 </defs>
 <g id="figure_1">
  <g id="patch_1">
   <path d="M 0 186.366269 
L 623.740362 186.366269 
L 623.740362 0 
L 0 0 
L 0 186.366269 
z
" style="fill: none"/>
  </g>
  <g id="axes_1">
   <g id="patch_2">
    <path d="M 58.540362 136.485375 
L 616.540362 136.485375 
L 616.540362 27.765375 
L 58.540362 27.765375 
z
" style="fill: #ffffff"/>
   </g>
   <g id="matplotlib.axis_1">
    <g id="xtick_1">
     <g id="line2d_1">
      <path d="M 73.551494 136.485375 
L 73.551494 27.765375 
" clip-path="url(#pae841824eb)" style="fill: none; stroke: #b0b0b0; stroke-width: 0.8; stroke-linecap: square"/>
     </g>
     <g id="line2d_2">
      <defs>
       <path id="mbb5d1c796f" d="M 0 0 
L 0 3.5 
" style="stroke: #000000; stroke-width: 0.8"/>
      </defs>
      <g>
       <use xlink:href="#mbb5d1c796f" x="73.551494" y="136.485375" style="stroke: #000000; stroke-width: 0.8"/>
      </g>
     </g>
     <g id="text_1">
      <!-- $\mathdefault{0}$ -->
      <g transform="translate(69.6495 154.842687)scale(0.16 -0.16)">
       <defs>
        <path id="CMR17-30" d="M 2688 2025 
C 2688 2416 2682 3080 2413 3591 
C 2176 4039 1798 4198 1466 4198 
C 1158 4198 768 4058 525 3597 
C 269 3118 243 2524 243 2025 
C 243 1661 250 1106 448 619 
C 723 -39 1216 -128 1466 -128 
C 1760 -128 2208 -7 2470 600 
C 2662 1042 2688 1559 2688 2025 
z
M 1466 -26 
C 1056 -26 813 325 723 812 
C 653 1188 653 1738 653 2096 
C 653 2588 653 2997 736 3387 
C 858 3929 1216 4096 1466 4096 
C 1728 4096 2067 3923 2189 3400 
C 2272 3036 2278 2607 2278 2096 
C 2278 1680 2278 1169 2202 792 
C 2067 95 1690 -26 1466 -26 
z
" transform="scale(0.015625)"/>
       </defs>
       <use xlink:href="#CMR17-30" transform="scale(0.996264)"/>
      </g>
     </g>
    </g>
    <g id="xtick_2">
     <g id="line2d_3">
      <path d="M 177.07654 136.485375 
L 177.07654 27.765375 
" clip-path="url(#pae841824eb)" style="fill: none; stroke: #b0b0b0; stroke-width: 0.8; stroke-linecap: square"/>
     </g>
     <g id="line2d_4">
      <g>
       <use xlink:href="#mbb5d1c796f" x="177.07654" y="136.485375" style="stroke: #000000; stroke-width: 0.8"/>
      </g>
     </g>
     <g id="text_2">
      <!-- $\mathdefault{10}$ -->
      <g transform="translate(169.272553 154.842687)scale(0.16 -0.16)">
       <defs>
        <path id="CMR17-31" d="M 1702 4058 
C 1702 4192 1696 4192 1606 4192 
C 1357 3916 979 3827 621 3827 
C 602 3827 570 3827 563 3808 
C 557 3795 557 3782 557 3648 
C 755 3648 1088 3686 1344 3839 
L 1344 461 
C 1344 236 1331 160 781 160 
L 589 160 
L 589 0 
C 896 0 1216 0 1523 0 
C 1830 0 2150 0 2458 0 
L 2458 160 
L 2266 160 
C 1715 160 1702 230 1702 458 
L 1702 4058 
z
" transform="scale(0.015625)"/>
       </defs>
       <use xlink:href="#CMR17-31" transform="scale(0.996264)"/>
       <use xlink:href="#CMR17-30" transform="translate(45.690477 0)scale(0.996264)"/>
      </g>
     </g>
    </g>
    <g id="xtick_3">
     <g id="line2d_5">
      <path d="M 280.601586 136.485375 
L 280.601586 27.765375 
" clip-path="url(#pae841824eb)" style="fill: none; stroke: #b0b0b0; stroke-width: 0.8; stroke-linecap: square"/>
     </g>
     <g id="line2d_6">
      <g>
       <use xlink:href="#mbb5d1c796f" x="280.601586" y="136.485375" style="stroke: #000000; stroke-width: 0.8"/>
      </g>
     </g>
     <g id="text_3">
      <!-- $\mathdefault{20}$ -->
      <g transform="translate(272.797599 154.842687)scale(0.16 -0.16)">
       <defs>
        <path id="CMR17-32" d="M 2669 989 
L 2554 989 
C 2490 536 2438 459 2413 420 
C 2381 369 1920 369 1830 369 
L 602 369 
C 832 619 1280 1072 1824 1597 
C 2214 1967 2669 2402 2669 3035 
C 2669 3790 2067 4224 1395 4224 
C 691 4224 262 3604 262 3030 
C 262 2780 448 2748 525 2748 
C 589 2748 781 2787 781 3010 
C 781 3207 614 3264 525 3264 
C 486 3264 448 3258 422 3245 
C 544 3790 915 4058 1306 4058 
C 1862 4058 2227 3617 2227 3035 
C 2227 2479 1901 2000 1536 1584 
L 262 146 
L 262 0 
L 2515 0 
L 2669 989 
z
" transform="scale(0.015625)"/>
       </defs>
       <use xlink:href="#CMR17-32" transform="scale(0.996264)"/>
       <use xlink:href="#CMR17-30" transform="translate(45.690477 0)scale(0.996264)"/>
      </g>
     </g>
    </g>
    <g id="xtick_4">
     <g id="line2d_7">
      <path d="M 384.126633 136.485375 
L 384.126633 27.765375 
" clip-path="url(#pae841824eb)" style="fill: none; stroke: #b0b0b0; stroke-width: 0.8; stroke-linecap: square"/>
     </g>
     <g id="line2d_8">
      <g>
       <use xlink:href="#mbb5d1c796f" x="384.126633" y="136.485375" style="stroke: #000000; stroke-width: 0.8"/>
      </g>
     </g>
     <g id="text_4">
      <!-- $\mathdefault{30}$ -->
      <g transform="translate(376.322646 154.842687)scale(0.16 -0.16)">
       <defs>
        <path id="CMR17-33" d="M 1414 2157 
C 1984 2157 2234 1662 2234 1090 
C 2234 320 1824 25 1453 25 
C 1114 25 563 194 390 693 
C 422 680 454 680 486 680 
C 640 680 755 782 755 948 
C 755 1133 614 1216 486 1216 
C 378 1216 211 1165 211 926 
C 211 335 787 -128 1466 -128 
C 2176 -128 2720 430 2720 1085 
C 2720 1707 2208 2157 1600 2227 
C 2086 2328 2554 2756 2554 3329 
C 2554 3820 2048 4179 1472 4179 
C 890 4179 378 3829 378 3329 
C 378 3110 544 3072 627 3072 
C 762 3072 877 3155 877 3321 
C 877 3486 762 3569 627 3569 
C 602 3569 570 3569 544 3557 
C 730 3959 1235 4032 1459 4032 
C 1683 4032 2106 3925 2106 3320 
C 2106 3143 2080 2828 1862 2550 
C 1670 2304 1453 2304 1242 2284 
C 1210 2284 1062 2269 1037 2269 
C 992 2263 966 2257 966 2208 
C 966 2163 973 2157 1101 2157 
L 1414 2157 
z
" transform="scale(0.015625)"/>
       </defs>
       <use xlink:href="#CMR17-33" transform="scale(0.996264)"/>
       <use xlink:href="#CMR17-30" transform="translate(45.690477 0)scale(0.996264)"/>
      </g>
     </g>
    </g>
    <g id="xtick_5">
     <g id="line2d_9">
      <path d="M 487.651679 136.485375 
L 487.651679 27.765375 
" clip-path="url(#pae841824eb)" style="fill: none; stroke: #b0b0b0; stroke-width: 0.8; stroke-linecap: square"/>
     </g>
     <g id="line2d_10">
      <g>
       <use xlink:href="#mbb5d1c796f" x="487.651679" y="136.485375" style="stroke: #000000; stroke-width: 0.8"/>
      </g>
     </g>
     <g id="text_5">
      <!-- $\mathdefault{40}$ -->
      <g transform="translate(479.847692 154.842687)scale(0.16 -0.16)">
       <defs>
        <path id="CMR17-34" d="M 2150 4122 
C 2150 4256 2144 4256 2029 4256 
L 128 1254 
L 128 1088 
L 1779 1088 
L 1779 457 
C 1779 224 1766 160 1318 160 
L 1197 160 
L 1197 0 
C 1402 0 1747 0 1965 0 
C 2182 0 2528 0 2733 0 
L 2733 160 
L 2611 160 
C 2163 160 2150 224 2150 457 
L 2150 1088 
L 2803 1088 
L 2803 1254 
L 2150 1254 
L 2150 4122 
z
M 1798 3703 
L 1798 1254 
L 256 1254 
L 1798 3703 
z
" transform="scale(0.015625)"/>
       </defs>
       <use xlink:href="#CMR17-34" transform="scale(0.996264)"/>
       <use xlink:href="#CMR17-30" transform="translate(45.690477 0)scale(0.996264)"/>
      </g>
     </g>
    </g>
    <g id="xtick_6">
     <g id="line2d_11">
      <path d="M 591.176725 136.485375 
L 591.176725 27.765375 
" clip-path="url(#pae841824eb)" style="fill: none; stroke: #b0b0b0; stroke-width: 0.8; stroke-linecap: square"/>
     </g>
     <g id="line2d_12">
      <g>
       <use xlink:href="#mbb5d1c796f" x="591.176725" y="136.485375" style="stroke: #000000; stroke-width: 0.8"/>
      </g>
     </g>
     <g id="text_6">
      <!-- $\mathdefault{50}$ -->
      <g transform="translate(583.372738 154.842687)scale(0.16 -0.16)">
       <defs>
        <path id="CMR17-35" d="M 730 3692 
C 794 3666 1056 3584 1325 3584 
C 1920 3584 2246 3911 2432 4100 
C 2432 4157 2432 4192 2394 4192 
C 2387 4192 2374 4192 2323 4163 
C 2099 4058 1837 3973 1517 3973 
C 1325 3973 1037 3999 723 4139 
C 653 4171 640 4171 634 4171 
C 602 4171 595 4164 595 4037 
L 595 2203 
C 595 2089 595 2057 659 2057 
C 691 2057 704 2070 736 2114 
C 941 2401 1222 2522 1542 2522 
C 1766 2522 2246 2382 2246 1289 
C 2246 1085 2246 715 2054 421 
C 1894 159 1645 25 1370 25 
C 947 25 518 320 403 814 
C 429 807 480 795 506 795 
C 589 795 749 840 749 1038 
C 749 1210 627 1280 506 1280 
C 358 1280 262 1190 262 1011 
C 262 454 704 -128 1382 -128 
C 2042 -128 2669 440 2669 1264 
C 2669 2030 2170 2624 1549 2624 
C 1222 2624 947 2503 730 2274 
L 730 3692 
z
" transform="scale(0.015625)"/>
       </defs>
       <use xlink:href="#CMR17-35" transform="scale(0.996264)"/>
       <use xlink:href="#CMR17-30" transform="translate(45.690477 0)scale(0.996264)"/>
      </g>
     </g>
    </g>
    <g id="text_7">
     <!-- Required number of members ($k$) -->
     <g transform="translate(205.208755 175.3467)scale(0.18 -0.18)">
      <defs>
       <path id="NimbusSanL-Regu-52" d="M 1190 2034 
L 2726 2034 
C 3258 2034 3494 1774 3494 1187 
L 3488 762 
C 3488 468 3539 181 3622 -14 
L 4346 -14 
L 4346 136 
C 4122 292 4077 462 4064 1093 
C 4058 1873 3936 2108 3430 2329 
C 3955 2583 4166 2906 4166 3434 
C 4166 4233 3661 4672 2746 4672 
L 595 4672 
L 595 -14 
L 1190 -14 
L 1190 2034 
z
M 1190 2560 
L 1190 4146 
L 2630 4146 
C 2963 4146 3155 4096 3302 3969 
C 3462 3836 3546 3628 3546 3350 
C 3546 2806 3264 2560 2630 2560 
L 1190 2560 
z
" transform="scale(0.015625)"/>
       <path id="NimbusSanL-Regu-65" d="M 3283 1529 
C 3283 2034 3245 2338 3149 2584 
C 2931 3127 2419 3456 1792 3456 
C 858 3456 256 2742 256 1645 
C 256 547 838 -128 1779 -128 
C 2547 -128 3078 310 3213 1044 
L 2675 1044 
C 2528 598 2227 365 1798 365 
C 1459 365 1171 520 992 805 
C 864 998 819 1193 813 1529 
L 3283 1529 
z
M 826 1984 
C 870 2577 1248 2962 1786 2962 
C 2310 2962 2714 2530 2714 1984 
C 2714 1984 2714 1984 2707 1984 
L 826 1984 
z
" transform="scale(0.015625)"/>
       <path id="NimbusSanL-Regu-71" d="M 3168 -1408 
L 3168 3349 
L 2694 3349 
L 2694 2899 
C 2445 3251 2067 3444 1626 3444 
C 742 3444 166 2715 166 1593 
C 166 497 717 -180 1600 -180 
C 2067 -180 2387 -14 2637 352 
L 2637 -1408 
L 3168 -1408 
z
M 1702 2944 
C 2272 2944 2637 2427 2637 1612 
C 2637 837 2266 320 1702 320 
C 1114 320 723 843 723 1632 
C 723 2414 1114 2944 1702 2944 
z
" transform="scale(0.015625)"/>
       <path id="NimbusSanL-Regu-75" d="M 3085 33 
L 3085 3392 
L 2554 3392 
L 2554 1479 
C 2554 790 2195 340 1638 340 
C 1216 340 947 597 947 1003 
L 947 3392 
L 416 3392 
L 416 792 
C 416 232 832 -128 1485 -128 
C 1978 -128 2291 45 2605 488 
L 2605 33 
L 3085 33 
z
" transform="scale(0.015625)"/>
       <path id="NimbusSanL-Regu-69" d="M 960 3359 
L 429 3359 
L 429 0 
L 960 0 
L 960 3359 
z
M 960 4672 
L 422 4672 
L 422 3999 
L 960 3999 
L 960 4672 
z
" transform="scale(0.015625)"/>
       <path id="NimbusSanL-Regu-72" d="M 442 3359 
L 442 0 
L 979 0 
L 979 1741 
C 979 2221 1101 2535 1357 2720 
C 1523 2842 1683 2880 2054 2880 
L 2054 3432 
C 1965 3444 1920 3444 1850 3444 
C 1504 3444 1242 3240 934 2746 
L 934 3359 
L 442 3359 
z
" transform="scale(0.015625)"/>
       <path id="NimbusSanL-Regu-64" d="M 3168 4672 
L 2637 4672 
L 2637 2937 
C 2413 3276 2054 3456 1606 3456 
C 736 3456 166 2761 166 1695 
C 166 566 723 -128 1626 -128 
C 2086 -128 2406 45 2694 461 
L 2694 -2 
L 3168 -2 
L 3168 4672 
z
M 1696 2956 
C 2272 2956 2637 2447 2637 1651 
C 2637 881 2266 372 1702 372 
C 1114 372 723 887 723 1664 
C 723 2440 1114 2956 1696 2956 
z
" transform="scale(0.015625)"/>
       <path id="NimbusSanL-Regu-6e" d="M 448 3359 
L 448 0 
L 986 0 
L 986 1853 
C 986 2539 1344 2988 1894 2988 
C 2317 2988 2586 2731 2586 2327 
L 2586 0 
L 3117 0 
L 3117 2539 
C 3117 3097 2701 3456 2054 3456 
C 1555 3456 1235 3263 941 2796 
L 941 3359 
L 448 3359 
z
" transform="scale(0.015625)"/>
       <path id="NimbusSanL-Regu-6d" d="M 448 3359 
L 448 0 
L 986 0 
L 986 2109 
C 986 2597 1338 2988 1773 2988 
C 2170 2988 2394 2744 2394 2314 
L 2394 0 
L 2931 0 
L 2931 2109 
C 2931 2597 3283 2988 3718 2988 
C 4109 2988 4339 2738 4339 2314 
L 4339 0 
L 4877 0 
L 4877 2520 
C 4877 3122 4531 3456 3904 3456 
C 3456 3456 3187 3321 2874 2943 
C 2675 3302 2406 3456 1971 3456 
C 1523 3456 1229 3289 941 2885 
L 941 3359 
L 448 3359 
z
" transform="scale(0.015625)"/>
       <path id="NimbusSanL-Regu-62" d="M 346 4672 
L 346 -2 
L 826 -2 
L 826 448 
C 1082 57 1421 -128 1888 -128 
C 2771 -128 3347 592 3347 1702 
C 3347 2786 2797 3456 1914 3456 
C 1453 3456 1126 3282 877 2905 
L 877 4672 
L 346 4672 
z
M 1811 2956 
C 2406 2956 2790 2440 2790 1645 
C 2790 887 2394 372 1811 372 
C 1248 372 877 881 877 1664 
C 877 2447 1248 2956 1811 2956 
z
" transform="scale(0.015625)"/>
       <path id="NimbusSanL-Regu-6f" d="M 1741 3456 
C 800 3456 230 2786 230 1663 
C 230 541 794 -128 1747 -128 
C 2688 -128 3264 541 3264 1638 
C 3264 2792 2707 3456 1741 3456 
z
M 1747 2962 
C 2349 2962 2707 2472 2707 1645 
C 2707 861 2336 365 1747 365 
C 1152 365 787 855 787 1663 
C 787 2466 1152 2962 1747 2962 
z
" transform="scale(0.015625)"/>
       <path id="NimbusSanL-Regu-66" d="M 1651 3328 
L 1094 3328 
L 1094 3856 
C 1094 4082 1222 4198 1466 4198 
C 1510 4198 1530 4198 1651 4198 
L 1651 4640 
C 1530 4666 1459 4672 1350 4672 
C 858 4672 563 4388 563 3903 
L 563 3328 
L 115 3328 
L 115 2892 
L 563 2892 
L 563 -26 
L 1094 -26 
L 1094 2892 
L 1651 2892 
L 1651 3328 
z
" transform="scale(0.015625)"/>
       <path id="NimbusSanL-Regu-73" d="M 2803 2427 
C 2797 3085 2362 3456 1587 3456 
C 806 3456 301 3054 301 2436 
C 301 1913 570 1665 1363 1474 
L 1862 1353 
C 2234 1263 2381 1130 2381 888 
C 2381 576 2067 365 1600 365 
C 1312 365 1069 448 934 588 
C 851 684 813 779 781 1014 
L 218 1014 
C 243 241 678 -128 1555 -128 
C 2400 -128 2938 285 2938 929 
C 2938 1426 2656 1701 1990 1860 
L 1478 1981 
C 1043 2082 858 2223 858 2458 
C 858 2764 1133 2962 1568 2962 
C 1997 2962 2227 2777 2240 2427 
L 2803 2427 
z
" transform="scale(0.015625)"/>
       <path id="NimbusSanL-Regu-28" d="M 1510 4672 
C 870 3830 467 2660 467 1651 
C 467 636 870 -534 1510 -1376 
L 1862 -1376 
C 1299 -457 986 623 986 1651 
C 986 2673 1299 3759 1862 4672 
L 1510 4672 
z
" transform="scale(0.015625)"/>
       <path id="CMMI12-6b" d="M 1798 4257 
C 1805 4283 1818 4321 1818 4352 
C 1818 4416 1754 4416 1741 4416 
C 1734 4416 1504 4393 1389 4377 
C 1280 4377 1184 4358 1069 4358 
C 915 4345 870 4339 870 4224 
C 870 4160 934 4160 998 4160 
C 1325 4160 1325 4103 1325 4040 
C 1325 4015 1325 4002 1293 3888 
L 378 248 
C 352 152 352 140 352 101 
C 352 -38 461 -64 525 -64 
C 704 -64 742 77 794 275 
L 1094 1469 
C 1555 1418 1830 1226 1830 920 
C 1830 881 1830 856 1811 760 
C 1786 664 1786 588 1786 556 
C 1786 185 2029 -64 2355 -64 
C 2650 -64 2803 204 2854 294 
C 2989 530 3072 888 3072 913 
C 3072 945 3046 971 3008 971 
C 2950 971 2944 945 2918 843 
C 2829 511 2694 64 2368 64 
C 2240 64 2157 128 2157 370 
C 2157 492 2182 632 2208 728 
C 2234 843 2234 849 2234 926 
C 2234 1303 1894 1514 1306 1590 
C 1536 1731 1766 1980 1856 2076 
C 2221 2484 2470 2689 2765 2689 
C 2912 2689 2950 2650 2995 2612 
C 2758 2586 2669 2420 2669 2293 
C 2669 2139 2790 2088 2880 2088 
C 3053 2088 3206 2235 3206 2440 
C 3206 2625 3059 2816 2771 2816 
C 2419 2816 2131 2567 1677 2056 
C 1613 1980 1376 1737 1139 1648 
L 1798 4257 
z
" transform="scale(0.015625)"/>
       <path id="NimbusSanL-Regu-29" d="M 595 -1376 
C 1235 -534 1638 636 1638 1644 
C 1638 2660 1235 3830 595 4672 
L 243 4672 
C 806 3753 1120 2673 1120 1644 
C 1120 623 806 -464 243 -1376 
L 595 -1376 
z
" transform="scale(0.015625)"/>
      </defs>
      <use xlink:href="#NimbusSanL-Regu-52" transform="scale(0.996264)"/>
      <use xlink:href="#NimbusSanL-Regu-65" transform="translate(71.929985 0)scale(0.996264)"/>
      <use xlink:href="#NimbusSanL-Regu-71" transform="translate(127.321662 0)scale(0.996264)"/>
      <use xlink:href="#NimbusSanL-Regu-75" transform="translate(182.713339 0)scale(0.996264)"/>
      <use xlink:href="#NimbusSanL-Regu-69" transform="translate(238.105016 0)scale(0.996264)"/>
      <use xlink:href="#NimbusSanL-Regu-72" transform="translate(260.2218 0)scale(0.996264)"/>
      <use xlink:href="#NimbusSanL-Regu-65" transform="translate(293.39703 0)scale(0.996264)"/>
      <use xlink:href="#NimbusSanL-Regu-64" transform="translate(348.788707 0)scale(0.996264)"/>
      <use xlink:href="#NimbusSanL-Regu-6e" transform="translate(431.875553 0)scale(0.996264)"/>
      <use xlink:href="#NimbusSanL-Regu-75" transform="translate(486.271134 0)scale(0.996264)"/>
      <use xlink:href="#NimbusSanL-Regu-6d" transform="translate(541.66281 0)scale(0.996264)"/>
      <use xlink:href="#NimbusSanL-Regu-62" transform="translate(624.651241 0)scale(0.996264)"/>
      <use xlink:href="#NimbusSanL-Regu-65" transform="translate(680.042918 0)scale(0.996264)"/>
      <use xlink:href="#NimbusSanL-Regu-72" transform="translate(735.434595 0)scale(0.996264)"/>
      <use xlink:href="#NimbusSanL-Regu-6f" transform="translate(796.304994 0)scale(0.996264)"/>
      <use xlink:href="#NimbusSanL-Regu-66" transform="translate(851.696671 0)scale(0.996264)"/>
      <use xlink:href="#NimbusSanL-Regu-6d" transform="translate(907.08701 0)scale(0.996264)"/>
      <use xlink:href="#NimbusSanL-Regu-65" transform="translate(990.07544 0)scale(0.996264)"/>
      <use xlink:href="#NimbusSanL-Regu-6d" transform="translate(1045.467117 0)scale(0.996264)"/>
      <use xlink:href="#NimbusSanL-Regu-62" transform="translate(1128.455548 0)scale(0.996264)"/>
      <use xlink:href="#NimbusSanL-Regu-65" transform="translate(1183.847225 0)scale(0.996264)"/>
      <use xlink:href="#NimbusSanL-Regu-72" transform="translate(1239.238901 0)scale(0.996264)"/>
      <use xlink:href="#NimbusSanL-Regu-73" transform="translate(1272.414131 0)scale(0.996264)"/>
      <use xlink:href="#NimbusSanL-Regu-28" transform="translate(1349.922501 0)scale(0.996264)"/>
      <use xlink:href="#CMMI12-6b" transform="translate(1383.097731 0)scale(0.996264)"/>
      <use xlink:href="#NimbusSanL-Regu-29" transform="translate(1437.176932 0)scale(0.996264)"/>
     </g>
    </g>
   </g>
   <g id="matplotlib.axis_2">
    <g id="ytick_1">
     <g id="line2d_13">
      <path d="M 58.540362 136.485375 
L 616.540362 136.485375 
" clip-path="url(#pae841824eb)" style="fill: none; stroke: #b0b0b0; stroke-width: 0.8; stroke-linecap: square"/>
     </g>
     <g id="line2d_14">
      <defs>
       <path id="mf6f88f0baf" d="M 0 0 
L -3.5 0 
" style="stroke: #000000; stroke-width: 0.8"/>
      </defs>
      <g>
       <use xlink:href="#mf6f88f0baf" x="58.540362" y="136.485375" style="stroke: #000000; stroke-width: 0.8"/>
      </g>
     </g>
     <g id="text_8">
      <!-- $\mathdefault{0}$ -->
      <g transform="translate(43.736375 142.164031)scale(0.16 -0.16)">
       <use xlink:href="#CMR17-30" transform="scale(0.996264)"/>
      </g>
     </g>
    </g>
    <g id="ytick_2">
     <g id="line2d_15">
      <path d="M 58.540362 87.067193 
L 616.540362 87.067193 
" clip-path="url(#pae841824eb)" style="fill: none; stroke: #b0b0b0; stroke-width: 0.8; stroke-linecap: square"/>
     </g>
     <g id="line2d_16">
      <g>
       <use xlink:href="#mf6f88f0baf" x="58.540362" y="87.067193" style="stroke: #000000; stroke-width: 0.8"/>
      </g>
     </g>
     <g id="text_9">
      <!-- $\mathdefault{50}$ -->
      <g transform="translate(35.932388 92.745849)scale(0.16 -0.16)">
       <use xlink:href="#CMR17-35" transform="scale(0.996264)"/>
       <use xlink:href="#CMR17-30" transform="translate(45.690477 0)scale(0.996264)"/>
      </g>
     </g>
    </g>
    <g id="ytick_3">
     <g id="line2d_17">
      <path d="M 58.540362 37.649011 
L 616.540362 37.649011 
" clip-path="url(#pae841824eb)" style="fill: none; stroke: #b0b0b0; stroke-width: 0.8; stroke-linecap: square"/>
     </g>
     <g id="line2d_18">
      <g>
       <use xlink:href="#mf6f88f0baf" x="58.540362" y="37.649011" style="stroke: #000000; stroke-width: 0.8"/>
      </g>
     </g>
     <g id="text_10">
      <!-- $\mathdefault{100}$ -->
      <g transform="translate(28.128401 43.327668)scale(0.16 -0.16)">
       <use xlink:href="#CMR17-31" transform="scale(0.996264)"/>
       <use xlink:href="#CMR17-30" transform="translate(45.690477 0)scale(0.996264)"/>
       <use xlink:href="#CMR17-30" transform="translate(91.380954 0)scale(0.996264)"/>
      </g>
     </g>
    </g>
    <g id="text_11">
     <!-- Prior (\%) -->
     <g transform="translate(20.308831 117.622677)rotate(-90)scale(0.18 -0.18)">
      <defs>
       <path id="NimbusSanL-Regu-50" d="M 1178 1984 
L 2643 1984 
C 3008 1984 3296 2093 3546 2316 
C 3827 2573 3949 2873 3949 3303 
C 3949 4179 3430 4672 2509 4672 
L 582 4672 
L 582 -14 
L 1178 -14 
L 1178 1984 
z
M 1178 2510 
L 1178 4146 
L 2419 4146 
C 2989 4146 3328 3839 3328 3327 
C 3328 2816 2989 2510 2419 2510 
L 1178 2510 
z
" transform="scale(0.015625)"/>
       <path id="NimbusSanL-Regu-25" d="M 1274 4416 
C 678 4416 186 3911 186 3295 
C 186 2681 678 2176 1280 2176 
C 1875 2176 2368 2681 2368 3282 
C 2368 3918 1888 4416 1274 4416 
z
M 1274 3967 
C 1638 3967 1926 3668 1926 3289 
C 1926 2923 1632 2625 1280 2625 
C 922 2625 627 2931 627 3295 
C 627 3668 922 3967 1274 3967 
z
M 3898 4544 
L 1370 -128 
L 1792 -128 
L 4320 4544 
L 3898 4544 
z
M 4403 2048 
C 3808 2048 3315 1557 3315 963 
C 3315 364 3808 -128 4410 -128 
C 4998 -128 5498 364 5498 951 
C 5498 1563 5018 2048 4403 2048 
z
M 4403 1600 
C 4768 1600 5056 1315 5056 954 
C 5056 611 4762 327 4410 327 
C 4051 327 3757 611 3757 966 
C 3757 1315 4051 1600 4403 1600 
z
" transform="scale(0.015625)"/>
      </defs>
      <use xlink:href="#NimbusSanL-Regu-50" transform="scale(0.996264)"/>
      <use xlink:href="#NimbusSanL-Regu-72" transform="translate(66.450031 0)scale(0.996264)"/>
      <use xlink:href="#NimbusSanL-Regu-69" transform="translate(101.118638 0)scale(0.996264)"/>
      <use xlink:href="#NimbusSanL-Regu-6f" transform="translate(123.235423 0)scale(0.996264)"/>
      <use xlink:href="#NimbusSanL-Regu-72" transform="translate(178.6271 0)scale(0.996264)"/>
      <use xlink:href="#NimbusSanL-Regu-28" transform="translate(239.497499 0)scale(0.996264)"/>
      <use xlink:href="#NimbusSanL-Regu-25" transform="translate(272.672729 0)scale(0.996264)"/>
      <use xlink:href="#NimbusSanL-Regu-29" transform="translate(361.239635 0)scale(0.996264)"/>
     </g>
    </g>
   </g>
   <g id="line2d_19">
    <path d="M 83.903998 37.649011 
L 94.256503 37.649011 
L 104.609007 37.649011 
L 114.961512 37.649011 
L 125.314017 37.649011 
L 135.666521 37.649011 
L 146.019026 37.649011 
L 156.371531 37.649011 
L 166.724035 37.649011 
L 177.07654 37.649011 
L 187.429045 37.649011 
L 197.781549 37.649013 
L 208.134054 37.649027 
L 218.486558 37.649151 
L 228.839063 37.650012 
L 239.191568 37.654975 
L 249.544072 37.678724 
L 259.896577 37.77372 
L 270.249082 38.093011 
L 280.601586 38.998702 
L 290.954091 41.174623 
L 301.306596 45.615279 
L 311.6591 53.331378 
L 322.011605 64.766957 
L 332.36411 79.240111 
L 342.716614 94.894275 
L 353.069119 109.36743 
L 363.421623 120.803009 
L 373.774128 128.519107 
L 384.126633 132.959763 
L 394.479137 135.135685 
L 404.831642 136.041375 
L 415.184147 136.360666 
L 425.536651 136.455662 
L 435.889156 136.479411 
L 446.241661 136.484374 
L 456.594165 136.485236 
L 466.94667 136.485359 
L 477.299174 136.485373 
L 487.651679 136.485375 
L 498.004184 136.485375 
L 508.356688 136.485375 
L 518.709193 136.485375 
L 529.061698 136.485375 
L 539.414202 136.485375 
L 549.766707 136.485375 
L 560.119212 136.485375 
L 570.471716 136.485375 
L 580.824221 136.485375 
L 591.176725 136.485375 
" clip-path="url(#pae841824eb)" style="fill: none; stroke: #1f77b4; stroke-width: 1.5; stroke-linecap: square"/>
   </g>
   <g id="patch_3">
    <path d="M 58.540362 136.485375 
L 58.540362 27.765375 
" style="fill: none; stroke: #000000; stroke-width: 0.8; stroke-linejoin: miter; stroke-linecap: square"/>
   </g>
   <g id="patch_4">
    <path d="M 616.540362 136.485375 
L 616.540362 27.765375 
" style="fill: none; stroke: #000000; stroke-width: 0.8; stroke-linejoin: miter; stroke-linecap: square"/>
   </g>
   <g id="patch_5">
    <path d="M 58.540362 136.485375 
L 616.540362 136.485375 
" style="fill: none; stroke: #000000; stroke-width: 0.8; stroke-linejoin: miter; stroke-linecap: square"/>
   </g>
   <g id="patch_6">
    <path d="M 58.540362 27.765375 
L 616.540362 27.765375 
" style="fill: none; stroke: #000000; stroke-width: 0.8; stroke-linejoin: miter; stroke-linecap: square"/>
   </g>
   <g id="text_12">
    <!-- Priors for Generalized Membership Attack ($n=100$) -->
    <g transform="translate(111.582718 21.765375)scale(0.2 -0.2)">
     <defs>
      <path id="NimbusSanL-Regu-47" d="M 4538 2496 
L 2592 2496 
L 2592 1971 
L 4013 1971 
L 4013 1841 
C 4013 1003 3398 397 2547 397 
C 2074 397 1645 569 1370 870 
C 1062 1201 877 1756 877 2330 
C 877 3471 1530 4224 2515 4224 
C 3226 4224 3738 3864 3866 3272 
L 4474 3272 
C 4307 4211 3590 4750 2522 4750 
C 1952 4750 1491 4603 1126 4303 
C 589 3856 282 3135 282 2298 
C 282 868 1158 -128 2419 -128 
C 3053 -128 3558 109 4013 616 
L 4160 -7 
L 4538 -7 
L 4538 2496 
z
" transform="scale(0.015625)"/>
      <path id="NimbusSanL-Regu-61" d="M 3424 333 
C 3366 320 3341 320 3309 320 
C 3123 320 3021 415 3021 581 
L 3021 2545 
C 3021 3137 2586 3456 1760 3456 
C 1274 3456 870 3316 646 3066 
C 493 2893 429 2702 416 2370 
L 954 2370 
C 998 2777 1242 2962 1741 2962 
C 2221 2962 2490 2783 2490 2465 
L 2490 2325 
C 2490 2101 2355 2006 1933 1955 
C 1178 1860 1062 1834 858 1751 
C 467 1592 269 1292 269 859 
C 269 254 691 -128 1370 -128 
C 1792 -128 2131 19 2509 365 
C 2547 25 2714 -128 3059 -128 
C 3168 -128 3251 -116 3424 -70 
L 3424 333 
z
M 2490 1072 
C 2490 893 2438 785 2278 639 
C 2061 441 1798 340 1485 340 
C 1069 340 826 537 826 874 
C 826 1225 1062 1403 1632 1486 
C 2195 1562 2310 1588 2490 1670 
L 2490 1072 
z
" transform="scale(0.015625)"/>
      <path id="NimbusSanL-Regu-6c" d="M 973 4672 
L 435 4672 
L 435 -2 
L 973 -2 
L 973 4672 
z
" transform="scale(0.015625)"/>
      <path id="NimbusSanL-Regu-7a" d="M 2835 3348 
L 333 3348 
L 333 2880 
L 2202 2880 
L 198 481 
L 198 0 
L 2925 0 
L 2925 468 
L 845 468 
L 2835 2874 
L 2835 3348 
z
" transform="scale(0.015625)"/>
      <path id="NimbusSanL-Regu-4d" d="M 2995 -2 
L 4307 3915 
L 4307 -2 
L 4870 -2 
L 4870 4672 
L 4045 4672 
L 2688 601 
L 1306 4672 
L 480 4672 
L 480 -2 
L 1043 -2 
L 1043 3915 
L 2368 -2 
L 2995 -2 
z
" transform="scale(0.015625)"/>
      <path id="NimbusSanL-Regu-68" d="M 448 4672 
L 448 -2 
L 979 -2 
L 979 1852 
C 979 2539 1338 2988 1888 2988 
C 2061 2988 2234 2930 2362 2834 
C 2515 2725 2579 2564 2579 2327 
L 2579 -2 
L 3110 -2 
L 3110 2538 
C 3110 3103 2707 3456 2054 3456 
C 1581 3456 1293 3308 979 2898 
L 979 4672 
L 448 4672 
z
" transform="scale(0.015625)"/>
      <path id="NimbusSanL-Regu-70" d="M 346 -1408 
L 883 -1408 
L 883 320 
C 1165 -27 1478 -180 1914 -180 
C 2778 -180 3347 522 3347 1599 
C 3347 2734 2797 3444 1907 3444 
C 1453 3444 1088 3238 838 2841 
L 838 3349 
L 346 3349 
L 346 -1408 
z
M 1818 2944 
C 2406 2944 2790 2420 2790 1612 
C 2790 843 2400 320 1818 320 
C 1254 320 883 837 883 1632 
C 883 2427 1254 2944 1818 2944 
z
" transform="scale(0.015625)"/>
      <path id="NimbusSanL-Regu-41" d="M 3034 1408 
L 3514 0 
L 4179 0 
L 2541 4672 
L 1773 4672 
L 109 0 
L 742 0 
L 1235 1408 
L 3034 1408 
z
M 2867 1908 
L 1382 1908 
L 2150 4032 
L 2867 1908 
z
" transform="scale(0.015625)"/>
      <path id="NimbusSanL-Regu-74" d="M 1626 3380 
L 1075 3380 
L 1075 4288 
L 544 4288 
L 544 3380 
L 90 3380 
L 90 2944 
L 544 2944 
L 544 404 
C 544 64 774 -128 1190 -128 
C 1318 -128 1446 -116 1626 -83 
L 1626 366 
C 1555 346 1472 340 1370 340 
C 1139 340 1075 404 1075 641 
L 1075 2944 
L 1626 2944 
L 1626 3380 
z
" transform="scale(0.015625)"/>
      <path id="NimbusSanL-Regu-63" d="M 3014 2236 
C 2989 2562 2918 2773 2790 2958 
C 2560 3271 2157 3456 1690 3456 
C 787 3456 198 2742 198 1632 
C 198 554 774 -128 1683 -128 
C 2483 -128 2989 350 3053 1167 
L 2515 1167 
C 2426 632 2150 365 1696 365 
C 1107 365 755 843 755 1632 
C 755 2466 1101 2962 1683 2962 
C 2131 2962 2413 2701 2477 2236 
L 3014 2236 
z
" transform="scale(0.015625)"/>
      <path id="NimbusSanL-Regu-6b" d="M 902 4672 
L 371 4672 
L 371 -2 
L 902 -2 
L 902 1306 
L 1421 1819 
L 2554 -2 
L 3213 -2 
L 1843 2197 
L 3008 3357 
L 2323 3357 
L 902 1934 
L 902 4672 
z
" transform="scale(0.015625)"/>
      <path id="CMMI12-6e" d="M 1318 1871 
C 1331 1910 1491 2229 1728 2433 
C 1894 2586 2112 2689 2362 2689 
C 2618 2689 2707 2497 2707 2242 
C 2707 1878 2445 1150 2317 805 
C 2259 651 2227 568 2227 453 
C 2227 166 2426 -64 2733 -64 
C 3328 -64 3552 875 3552 913 
C 3552 945 3526 971 3488 971 
C 3430 971 3424 952 3392 843 
C 3245 319 3002 64 2752 64 
C 2688 64 2586 64 2586 269 
C 2586 429 2656 621 2694 710 
C 2822 1063 3091 1780 3091 2145 
C 3091 2528 2867 2816 2381 2816 
C 1811 2816 1510 2415 1395 2255 
C 1376 2618 1114 2816 832 2816 
C 627 2816 486 2695 378 2478 
C 262 2248 173 1865 173 1839 
C 173 1814 198 1782 243 1782 
C 294 1782 301 1788 339 1935 
C 442 2325 557 2689 813 2689 
C 960 2689 1011 2586 1011 2395 
C 1011 2254 947 2005 902 1807 
L 723 1118 
C 698 996 627 709 595 594 
C 550 428 480 128 480 96 
C 480 6 550 -64 646 -64 
C 723 -64 813 -26 864 70 
C 877 102 934 326 966 453 
L 1107 1028 
L 1318 1871 
z
" transform="scale(0.015625)"/>
      <path id="CMR17-3d" d="M 4115 2017 
C 4211 2017 4307 2017 4307 2125 
C 4307 2240 4198 2240 4090 2240 
L 512 2240 
C 403 2240 294 2240 294 2125 
C 294 2017 390 2017 486 2017 
L 4115 2017 
z
M 4090 896 
C 4198 896 4307 896 4307 1011 
C 4307 1119 4211 1119 4115 1119 
L 486 1119 
C 390 1119 294 1119 294 1011 
C 294 896 403 896 512 896 
L 4090 896 
z
" transform="scale(0.015625)"/>
     </defs>
     <use xlink:href="#NimbusSanL-Regu-50" transform="scale(0.996264)"/>
     <use xlink:href="#NimbusSanL-Regu-72" transform="translate(66.450031 0)scale(0.996264)"/>
     <use xlink:href="#NimbusSanL-Regu-69" transform="translate(101.118638 0)scale(0.996264)"/>
     <use xlink:href="#NimbusSanL-Regu-6f" transform="translate(123.235423 0)scale(0.996264)"/>
     <use xlink:href="#NimbusSanL-Regu-72" transform="translate(178.6271 0)scale(0.996264)"/>
     <use xlink:href="#NimbusSanL-Regu-73" transform="translate(211.802329 0)scale(0.996264)"/>
     <use xlink:href="#NimbusSanL-Regu-66" transform="translate(289.3107 0)scale(0.996264)"/>
     <use xlink:href="#NimbusSanL-Regu-6f" transform="translate(314.017761 0)scale(0.996264)"/>
     <use xlink:href="#NimbusSanL-Regu-72" transform="translate(369.409438 0)scale(0.996264)"/>
     <use xlink:href="#NimbusSanL-Regu-47" transform="translate(430.279837 0)scale(0.996264)"/>
     <use xlink:href="#NimbusSanL-Regu-65" transform="translate(507.788208 0)scale(0.996264)"/>
     <use xlink:href="#NimbusSanL-Regu-6e" transform="translate(563.179885 0)scale(0.996264)"/>
     <use xlink:href="#NimbusSanL-Regu-65" transform="translate(618.571561 0)scale(0.996264)"/>
     <use xlink:href="#NimbusSanL-Regu-72" transform="translate(673.963238 0)scale(0.996264)"/>
     <use xlink:href="#NimbusSanL-Regu-61" transform="translate(706.142371 0)scale(0.996264)"/>
     <use xlink:href="#NimbusSanL-Regu-6c" transform="translate(761.534048 0)scale(0.996264)"/>
     <use xlink:href="#NimbusSanL-Regu-69" transform="translate(783.650833 0)scale(0.996264)"/>
     <use xlink:href="#NimbusSanL-Regu-7a" transform="translate(805.767617 0)scale(0.996264)"/>
     <use xlink:href="#NimbusSanL-Regu-65" transform="translate(854.087425 0)scale(0.996264)"/>
     <use xlink:href="#NimbusSanL-Regu-64" transform="translate(909.479102 0)scale(0.996264)"/>
     <use xlink:href="#NimbusSanL-Regu-4d" transform="translate(992.565948 0)scale(0.996264)"/>
     <use xlink:href="#NimbusSanL-Regu-65" transform="translate(1075.554379 0)scale(0.996264)"/>
     <use xlink:href="#NimbusSanL-Regu-6d" transform="translate(1130.946056 0)scale(0.996264)"/>
     <use xlink:href="#NimbusSanL-Regu-62" transform="translate(1213.934486 0)scale(0.996264)"/>
     <use xlink:href="#NimbusSanL-Regu-65" transform="translate(1269.326163 0)scale(0.996264)"/>
     <use xlink:href="#NimbusSanL-Regu-72" transform="translate(1324.71784 0)scale(0.996264)"/>
     <use xlink:href="#NimbusSanL-Regu-73" transform="translate(1357.893069 0)scale(0.996264)"/>
     <use xlink:href="#NimbusSanL-Regu-68" transform="translate(1407.70627 0)scale(0.996264)"/>
     <use xlink:href="#NimbusSanL-Regu-69" transform="translate(1463.097947 0)scale(0.996264)"/>
     <use xlink:href="#NimbusSanL-Regu-70" transform="translate(1485.214731 0)scale(0.996264)"/>
     <use xlink:href="#NimbusSanL-Regu-41" transform="translate(1568.301578 0)scale(0.996264)"/>
     <use xlink:href="#NimbusSanL-Regu-74" transform="translate(1634.751609 0)scale(0.996264)"/>
     <use xlink:href="#NimbusSanL-Regu-74" transform="translate(1662.446779 0)scale(0.996264)"/>
     <use xlink:href="#NimbusSanL-Regu-61" transform="translate(1690.141948 0)scale(0.996264)"/>
     <use xlink:href="#NimbusSanL-Regu-63" transform="translate(1745.533625 0)scale(0.996264)"/>
     <use xlink:href="#NimbusSanL-Regu-6b" transform="translate(1793.354814 0)scale(0.996264)"/>
     <use xlink:href="#NimbusSanL-Regu-28" transform="translate(1870.863185 0)scale(0.996264)"/>
     <use xlink:href="#CMMI12-6e" transform="translate(1904.038414 0)scale(0.996264)"/>
     <use xlink:href="#CMR17-3d" transform="translate(1989.94247 0)scale(0.996264)"/>
     <use xlink:href="#CMR17-31" transform="translate(2089.331268 0)scale(0.996264)"/>
     <use xlink:href="#CMR17-30" transform="translate(2135.021745 0)scale(0.996264)"/>
     <use xlink:href="#CMR17-30" transform="translate(2180.712222 0)scale(0.996264)"/>
     <use xlink:href="#NimbusSanL-Regu-29" transform="translate(2226.402699 0)scale(0.996264)"/>
    </g>
   </g>
  </g>
 </g>
 <defs>
  <clipPath id="pae841824eb">
   <rect x="58.540362" y="27.765375" width="558" height="108.72"/>
  </clipPath>
 </defs>
</svg>
