<?xml version="1.0" encoding="utf-8" standalone="no"?>
<!DOCTYPE svg PUBLIC "-//W3C//DTD SVG 1.1//EN"
  "http://www.w3.org/Graphics/SVG/1.1/DTD/svg11.dtd">
<svg xmlns:xlink="http://www.w3.org/1999/xlink" width="631.544349pt" height="426.440895pt" viewBox="0 0 631.544349 426.440895" xmlns="http://www.w3.org/2000/svg" version="1.1">
 <metadata>
  <rdf:RDF xmlns:dc="http://purl.org/dc/elements/1.1/" xmlns:cc="http://creativecommons.org/ns#" xmlns:rdf="http://www.w3.org/1999/02/22-rdf-syntax-ns#">
   <cc:Work>
    <dc:type rdf:resource="http://purl.org/dc/dcmitype/StillImage"/>
    <dc:date>2024-10-05T19:26:38.233672</dc:date>
    <dc:format>image/svg+xml</dc:format>
    <dc:creator>
     <cc:Agent>
      <dc:title>Matplotlib v3.5.1, https://matplotlib.org/</dc:title>
     </cc:Agent>
    </dc:creator>
   </cc:Work>
  </rdf:RDF>
 </metadata>
 <defs>
  <style type="text/css">*{stroke-linejoin: round; stroke-linecap: butt}</style>
 </defs>
 <g id="figure_1">
  <g id="patch_1">
   <path d="M 0 426.440895 
L 631.544349 426.440895 
L 631.544349 0 
L 0 0 
L 0 426.440895 
z
" style="fill: none"/>
  </g>
  <g id="axes_1">
   <g id="patch_2">
    <path d="M 58.540362 141 
L 616.540362 141 
L 616.540362 50.4 
L 58.540362 50.4 
z
" style="fill: #ffffff"/>
   </g>
   <g id="matplotlib.axis_1">
    <g id="xtick_1">
     <g id="line2d_1">
      <path d="M 217.017689 141 
L 217.017689 50.4 
" clip-path="url(#pf209f1eedf)" style="fill: none; stroke: #b0b0b0; stroke-width: 0.8; stroke-linecap: square"/>
     </g>
     <g id="line2d_2">
      <defs>
       <path id="m3eecdf7787" d="M 0 0 
L 0 3.5 
" style="stroke: #000000; stroke-width: 0.8"/>
      </defs>
      <g>
       <use xlink:href="#m3eecdf7787" x="217.017689" y="141" style="stroke: #000000; stroke-width: 0.8"/>
      </g>
     </g>
    </g>
    <g id="xtick_2">
     <g id="line2d_3">
      <path d="M 350.191913 141 
L 350.191913 50.4 
" clip-path="url(#pf209f1eedf)" style="fill: none; stroke: #b0b0b0; stroke-width: 0.8; stroke-linecap: square"/>
     </g>
     <g id="line2d_4">
      <g>
       <use xlink:href="#m3eecdf7787" x="350.191913" y="141" style="stroke: #000000; stroke-width: 0.8"/>
      </g>
     </g>
    </g>
    <g id="xtick_3">
     <g id="line2d_5">
      <path d="M 483.366137 141 
L 483.366137 50.4 
" clip-path="url(#pf209f1eedf)" style="fill: none; stroke: #b0b0b0; stroke-width: 0.8; stroke-linecap: square"/>
     </g>
     <g id="line2d_6">
      <g>
       <use xlink:href="#m3eecdf7787" x="483.366137" y="141" style="stroke: #000000; stroke-width: 0.8"/>
      </g>
     </g>
    </g>
    <g id="xtick_4">
     <g id="line2d_7">
      <path d="M 616.540362 141 
L 616.540362 50.4 
" clip-path="url(#pf209f1eedf)" style="fill: none; stroke: #b0b0b0; stroke-width: 0.8; stroke-linecap: square"/>
     </g>
     <g id="line2d_8">
      <g>
       <use xlink:href="#m3eecdf7787" x="616.540362" y="141" style="stroke: #000000; stroke-width: 0.8"/>
      </g>
     </g>
    </g>
   </g>
   <g id="matplotlib.axis_2">
    <g id="ytick_1">
     <g id="line2d_9">
      <path d="M 58.540362 141 
L 616.540362 141 
" clip-path="url(#pf209f1eedf)" style="fill: none; stroke: #b0b0b0; stroke-width: 0.8; stroke-linecap: square"/>
     </g>
     <g id="line2d_10">
      <defs>
       <path id="m7e1444745f" d="M 0 0 
L -3.5 0 
" style="stroke: #000000; stroke-width: 0.8"/>
      </defs>
      <g>
       <use xlink:href="#m7e1444745f" x="58.540362" y="141" style="stroke: #000000; stroke-width: 0.8"/>
      </g>
     </g>
     <g id="text_1">
      <!-- $\mathdefault{0}$ -->
      <g transform="translate(43.736375 146.678656)scale(0.16 -0.16)">
       <defs>
        <path id="CMR17-30" d="M 2688 2025 
C 2688 2416 2682 3080 2413 3591 
C 2176 4039 1798 4198 1466 4198 
C 1158 4198 768 4058 525 3597 
C 269 3118 243 2524 243 2025 
C 243 1661 250 1106 448 619 
C 723 -39 1216 -128 1466 -128 
C 1760 -128 2208 -7 2470 600 
C 2662 1042 2688 1559 2688 2025 
z
M 1466 -26 
C 1056 -26 813 325 723 812 
C 653 1188 653 1738 653 2096 
C 653 2588 653 2997 736 3387 
C 858 3929 1216 4096 1466 4096 
C 1728 4096 2067 3923 2189 3400 
C 2272 3036 2278 2607 2278 2096 
C 2278 1680 2278 1169 2202 792 
C 2067 95 1690 -26 1466 -26 
z
" transform="scale(0.015625)"/>
       </defs>
       <use xlink:href="#CMR17-30" transform="scale(0.996264)"/>
      </g>
     </g>
    </g>
    <g id="ytick_2">
     <g id="line2d_11">
      <path d="M 58.540362 95.7 
L 616.540362 95.7 
" clip-path="url(#pf209f1eedf)" style="fill: none; stroke: #b0b0b0; stroke-width: 0.8; stroke-linecap: square"/>
     </g>
     <g id="line2d_12">
      <g>
       <use xlink:href="#m7e1444745f" x="58.540362" y="95.7" style="stroke: #000000; stroke-width: 0.8"/>
      </g>
     </g>
     <g id="text_2">
      <!-- $\mathdefault{50}$ -->
      <g transform="translate(35.932388 101.378656)scale(0.16 -0.16)">
       <defs>
        <path id="CMR17-35" d="M 730 3692 
C 794 3666 1056 3584 1325 3584 
C 1920 3584 2246 3911 2432 4100 
C 2432 4157 2432 4192 2394 4192 
C 2387 4192 2374 4192 2323 4163 
C 2099 4058 1837 3973 1517 3973 
C 1325 3973 1037 3999 723 4139 
C 653 4171 640 4171 634 4171 
C 602 4171 595 4164 595 4037 
L 595 2203 
C 595 2089 595 2057 659 2057 
C 691 2057 704 2070 736 2114 
C 941 2401 1222 2522 1542 2522 
C 1766 2522 2246 2382 2246 1289 
C 2246 1085 2246 715 2054 421 
C 1894 159 1645 25 1370 25 
C 947 25 518 320 403 814 
C 429 807 480 795 506 795 
C 589 795 749 840 749 1038 
C 749 1210 627 1280 506 1280 
C 358 1280 262 1190 262 1011 
C 262 454 704 -128 1382 -128 
C 2042 -128 2669 440 2669 1264 
C 2669 2030 2170 2624 1549 2624 
C 1222 2624 947 2503 730 2274 
L 730 3692 
z
" transform="scale(0.015625)"/>
       </defs>
       <use xlink:href="#CMR17-35" transform="scale(0.996264)"/>
       <use xlink:href="#CMR17-30" transform="translate(45.690477 0)scale(0.996264)"/>
      </g>
     </g>
    </g>
    <g id="ytick_3">
     <g id="line2d_13">
      <path d="M 58.540362 50.4 
L 616.540362 50.4 
" clip-path="url(#pf209f1eedf)" style="fill: none; stroke: #b0b0b0; stroke-width: 0.8; stroke-linecap: square"/>
     </g>
     <g id="line2d_14">
      <g>
       <use xlink:href="#m7e1444745f" x="58.540362" y="50.4" style="stroke: #000000; stroke-width: 0.8"/>
      </g>
     </g>
     <g id="text_3">
      <!-- $\mathdefault{100}$ -->
      <g transform="translate(28.128401 56.078656)scale(0.16 -0.16)">
       <defs>
        <path id="CMR17-31" d="M 1702 4058 
C 1702 4192 1696 4192 1606 4192 
C 1357 3916 979 3827 621 3827 
C 602 3827 570 3827 563 3808 
C 557 3795 557 3782 557 3648 
C 755 3648 1088 3686 1344 3839 
L 1344 461 
C 1344 236 1331 160 781 160 
L 589 160 
L 589 0 
C 896 0 1216 0 1523 0 
C 1830 0 2150 0 2458 0 
L 2458 160 
L 2266 160 
C 1715 160 1702 230 1702 458 
L 1702 4058 
z
" transform="scale(0.015625)"/>
       </defs>
       <use xlink:href="#CMR17-31" transform="scale(0.996264)"/>
       <use xlink:href="#CMR17-30" transform="translate(45.690477 0)scale(0.996264)"/>
       <use xlink:href="#CMR17-30" transform="translate(91.380954 0)scale(0.996264)"/>
      </g>
     </g>
    </g>
    <g id="text_4">
     <!-- Variance (\%) -->
     <g transform="translate(20.308831 147.022867)rotate(-90)scale(0.18 -0.18)">
      <defs>
       <path id="NimbusSanL-Regu-56" d="M 2509 0 
L 4128 4672 
L 3494 4672 
L 2202 718 
L 832 4672 
L 192 4672 
L 1869 0 
L 2509 0 
z
" transform="scale(0.015625)"/>
       <path id="NimbusSanL-Regu-61" d="M 3424 333 
C 3366 320 3341 320 3309 320 
C 3123 320 3021 415 3021 581 
L 3021 2545 
C 3021 3137 2586 3456 1760 3456 
C 1274 3456 870 3316 646 3066 
C 493 2893 429 2702 416 2370 
L 954 2370 
C 998 2777 1242 2962 1741 2962 
C 2221 2962 2490 2783 2490 2465 
L 2490 2325 
C 2490 2101 2355 2006 1933 1955 
C 1178 1860 1062 1834 858 1751 
C 467 1592 269 1292 269 859 
C 269 254 691 -128 1370 -128 
C 1792 -128 2131 19 2509 365 
C 2547 25 2714 -128 3059 -128 
C 3168 -128 3251 -116 3424 -70 
L 3424 333 
z
M 2490 1072 
C 2490 893 2438 785 2278 639 
C 2061 441 1798 340 1485 340 
C 1069 340 826 537 826 874 
C 826 1225 1062 1403 1632 1486 
C 2195 1562 2310 1588 2490 1670 
L 2490 1072 
z
" transform="scale(0.015625)"/>
       <path id="NimbusSanL-Regu-72" d="M 442 3359 
L 442 0 
L 979 0 
L 979 1741 
C 979 2221 1101 2535 1357 2720 
C 1523 2842 1683 2880 2054 2880 
L 2054 3432 
C 1965 3444 1920 3444 1850 3444 
C 1504 3444 1242 3240 934 2746 
L 934 3359 
L 442 3359 
z
" transform="scale(0.015625)"/>
       <path id="NimbusSanL-Regu-69" d="M 960 3359 
L 429 3359 
L 429 0 
L 960 0 
L 960 3359 
z
M 960 4672 
L 422 4672 
L 422 3999 
L 960 3999 
L 960 4672 
z
" transform="scale(0.015625)"/>
       <path id="NimbusSanL-Regu-6e" d="M 448 3359 
L 448 0 
L 986 0 
L 986 1853 
C 986 2539 1344 2988 1894 2988 
C 2317 2988 2586 2731 2586 2327 
L 2586 0 
L 3117 0 
L 3117 2539 
C 3117 3097 2701 3456 2054 3456 
C 1555 3456 1235 3263 941 2796 
L 941 3359 
L 448 3359 
z
" transform="scale(0.015625)"/>
       <path id="NimbusSanL-Regu-63" d="M 3014 2236 
C 2989 2562 2918 2773 2790 2958 
C 2560 3271 2157 3456 1690 3456 
C 787 3456 198 2742 198 1632 
C 198 554 774 -128 1683 -128 
C 2483 -128 2989 350 3053 1167 
L 2515 1167 
C 2426 632 2150 365 1696 365 
C 1107 365 755 843 755 1632 
C 755 2466 1101 2962 1683 2962 
C 2131 2962 2413 2701 2477 2236 
L 3014 2236 
z
" transform="scale(0.015625)"/>
       <path id="NimbusSanL-Regu-65" d="M 3283 1529 
C 3283 2034 3245 2338 3149 2584 
C 2931 3127 2419 3456 1792 3456 
C 858 3456 256 2742 256 1645 
C 256 547 838 -128 1779 -128 
C 2547 -128 3078 310 3213 1044 
L 2675 1044 
C 2528 598 2227 365 1798 365 
C 1459 365 1171 520 992 805 
C 864 998 819 1193 813 1529 
L 3283 1529 
z
M 826 1984 
C 870 2577 1248 2962 1786 2962 
C 2310 2962 2714 2530 2714 1984 
C 2714 1984 2714 1984 2707 1984 
L 826 1984 
z
" transform="scale(0.015625)"/>
       <path id="NimbusSanL-Regu-28" d="M 1510 4672 
C 870 3830 467 2660 467 1651 
C 467 636 870 -534 1510 -1376 
L 1862 -1376 
C 1299 -457 986 623 986 1651 
C 986 2673 1299 3759 1862 4672 
L 1510 4672 
z
" transform="scale(0.015625)"/>
       <path id="NimbusSanL-Regu-25" d="M 1274 4416 
C 678 4416 186 3911 186 3295 
C 186 2681 678 2176 1280 2176 
C 1875 2176 2368 2681 2368 3282 
C 2368 3918 1888 4416 1274 4416 
z
M 1274 3967 
C 1638 3967 1926 3668 1926 3289 
C 1926 2923 1632 2625 1280 2625 
C 922 2625 627 2931 627 3295 
C 627 3668 922 3967 1274 3967 
z
M 3898 4544 
L 1370 -128 
L 1792 -128 
L 4320 4544 
L 3898 4544 
z
M 4403 2048 
C 3808 2048 3315 1557 3315 963 
C 3315 364 3808 -128 4410 -128 
C 4998 -128 5498 364 5498 951 
C 5498 1563 5018 2048 4403 2048 
z
M 4403 1600 
C 4768 1600 5056 1315 5056 954 
C 5056 611 4762 327 4410 327 
C 4051 327 3757 611 3757 966 
C 3757 1315 4051 1600 4403 1600 
z
" transform="scale(0.015625)"/>
       <path id="NimbusSanL-Regu-29" d="M 595 -1376 
C 1235 -534 1638 636 1638 1644 
C 1638 2660 1235 3830 595 4672 
L 243 4672 
C 806 3753 1120 2673 1120 1644 
C 1120 623 806 -464 243 -1376 
L 595 -1376 
z
" transform="scale(0.015625)"/>
      </defs>
      <use xlink:href="#NimbusSanL-Regu-56" transform="scale(0.996264)"/>
      <use xlink:href="#NimbusSanL-Regu-61" transform="translate(59.476685 0)scale(0.996264)"/>
      <use xlink:href="#NimbusSanL-Regu-72" transform="translate(114.868362 0)scale(0.996264)"/>
      <use xlink:href="#NimbusSanL-Regu-69" transform="translate(149.536969 0)scale(0.996264)"/>
      <use xlink:href="#NimbusSanL-Regu-61" transform="translate(171.653753 0)scale(0.996264)"/>
      <use xlink:href="#NimbusSanL-Regu-6e" transform="translate(227.04543 0)scale(0.996264)"/>
      <use xlink:href="#NimbusSanL-Regu-63" transform="translate(282.437107 0)scale(0.996264)"/>
      <use xlink:href="#NimbusSanL-Regu-65" transform="translate(332.250308 0)scale(0.996264)"/>
      <use xlink:href="#NimbusSanL-Regu-28" transform="translate(415.337154 0)scale(0.996264)"/>
      <use xlink:href="#NimbusSanL-Regu-25" transform="translate(448.512384 0)scale(0.996264)"/>
      <use xlink:href="#NimbusSanL-Regu-29" transform="translate(537.079291 0)scale(0.996264)"/>
     </g>
    </g>
   </g>
   <g id="line2d_15">
    <defs>
     <path id="mb8a568f026" d="M -5 5 
L 5 -5 
M -5 -5 
L 5 5 
" style="stroke: #1f77b4; stroke-width: 3"/>
    </defs>
    <g clip-path="url(#pf209f1eedf)">
     <use xlink:href="#mb8a568f026" x="83.843464" y="82.053445" style="fill: #1f77b4; stroke: #1f77b4; stroke-width: 3"/>
     <use xlink:href="#mb8a568f026" x="110.478309" y="119.503944" style="fill: #1f77b4; stroke: #1f77b4; stroke-width: 3"/>
     <use xlink:href="#mb8a568f026" x="137.113154" y="131.083095" style="fill: #1f77b4; stroke: #1f77b4; stroke-width: 3"/>
     <use xlink:href="#mb8a568f026" x="163.747999" y="140.854817" style="fill: #1f77b4; stroke: #1f77b4; stroke-width: 3"/>
     <use xlink:href="#mb8a568f026" x="190.382844" y="140.931322" style="fill: #1f77b4; stroke: #1f77b4; stroke-width: 3"/>
     <use xlink:href="#mb8a568f026" x="217.017689" y="140.978381" style="fill: #1f77b4; stroke: #1f77b4; stroke-width: 3"/>
     <use xlink:href="#mb8a568f026" x="243.652534" y="140.994996" style="fill: #1f77b4; stroke: #1f77b4; stroke-width: 3"/>
    </g>
   </g>
   <g id="patch_3">
    <path d="M 58.540362 141 
L 58.540362 50.4 
" style="fill: none; stroke: #000000; stroke-width: 0.8; stroke-linejoin: miter; stroke-linecap: square"/>
   </g>
   <g id="patch_4">
    <path d="M 616.540362 141 
L 616.540362 50.4 
" style="fill: none; stroke: #000000; stroke-width: 0.8; stroke-linejoin: miter; stroke-linecap: square"/>
   </g>
   <g id="patch_5">
    <path d="M 58.540362 141 
L 616.540362 141 
" style="fill: none; stroke: #000000; stroke-width: 0.8; stroke-linejoin: miter; stroke-linecap: square"/>
   </g>
   <g id="patch_6">
    <path d="M 58.540362 50.4 
L 616.540362 50.4 
" style="fill: none; stroke: #000000; stroke-width: 0.8; stroke-linejoin: miter; stroke-linecap: square"/>
   </g>
   <g id="text_5">
    <!-- Rice Data -->
    <g transform="translate(298.17841 44.4)scale(0.18 -0.18)">
     <defs>
      <path id="NimbusSanL-Regu-52" d="M 1190 2034 
L 2726 2034 
C 3258 2034 3494 1774 3494 1187 
L 3488 762 
C 3488 468 3539 181 3622 -14 
L 4346 -14 
L 4346 136 
C 4122 292 4077 462 4064 1093 
C 4058 1873 3936 2108 3430 2329 
C 3955 2583 4166 2906 4166 3434 
C 4166 4233 3661 4672 2746 4672 
L 595 4672 
L 595 -14 
L 1190 -14 
L 1190 2034 
z
M 1190 2560 
L 1190 4146 
L 2630 4146 
C 2963 4146 3155 4096 3302 3969 
C 3462 3836 3546 3628 3546 3350 
C 3546 2806 3264 2560 2630 2560 
L 1190 2560 
z
" transform="scale(0.015625)"/>
      <path id="NimbusSanL-Regu-44" d="M 570 0 
L 2368 0 
C 3546 0 4269 885 4269 2339 
C 4269 3787 3552 4672 2368 4672 
L 570 4672 
L 570 0 
z
M 1165 526 
L 1165 4146 
L 2266 4146 
C 3187 4146 3674 3524 3674 2333 
C 3674 1154 3187 526 2266 526 
L 1165 526 
z
" transform="scale(0.015625)"/>
      <path id="NimbusSanL-Regu-74" d="M 1626 3380 
L 1075 3380 
L 1075 4288 
L 544 4288 
L 544 3380 
L 90 3380 
L 90 2944 
L 544 2944 
L 544 404 
C 544 64 774 -128 1190 -128 
C 1318 -128 1446 -116 1626 -83 
L 1626 366 
C 1555 346 1472 340 1370 340 
C 1139 340 1075 404 1075 641 
L 1075 2944 
L 1626 2944 
L 1626 3380 
z
" transform="scale(0.015625)"/>
     </defs>
     <use xlink:href="#NimbusSanL-Regu-52" transform="scale(0.996264)"/>
     <use xlink:href="#NimbusSanL-Regu-69" transform="translate(71.929985 0)scale(0.996264)"/>
     <use xlink:href="#NimbusSanL-Regu-63" transform="translate(94.046769 0)scale(0.996264)"/>
     <use xlink:href="#NimbusSanL-Regu-65" transform="translate(143.85997 0)scale(0.996264)"/>
     <use xlink:href="#NimbusSanL-Regu-44" transform="translate(226.946816 0)scale(0.996264)"/>
     <use xlink:href="#NimbusSanL-Regu-61" transform="translate(298.876801 0)scale(0.996264)"/>
     <use xlink:href="#NimbusSanL-Regu-74" transform="translate(354.268478 0)scale(0.996264)"/>
     <use xlink:href="#NimbusSanL-Regu-61" transform="translate(381.963648 0)scale(0.996264)"/>
    </g>
   </g>
  </g>
  <g id="axes_2">
   <g id="patch_7">
    <path d="M 58.540362 258.78 
L 616.540362 258.78 
L 616.540362 168.18 
L 58.540362 168.18 
z
" style="fill: #ffffff"/>
   </g>
   <g id="matplotlib.axis_3">
    <g id="xtick_5">
     <g id="line2d_16">
      <path d="M 217.017689 258.78 
L 217.017689 168.18 
" clip-path="url(#p8c8c25d95b)" style="fill: none; stroke: #b0b0b0; stroke-width: 0.8; stroke-linecap: square"/>
     </g>
     <g id="line2d_17">
      <g>
       <use xlink:href="#m3eecdf7787" x="217.017689" y="258.78" style="stroke: #000000; stroke-width: 0.8"/>
      </g>
     </g>
    </g>
    <g id="xtick_6">
     <g id="line2d_18">
      <path d="M 350.191913 258.78 
L 350.191913 168.18 
" clip-path="url(#p8c8c25d95b)" style="fill: none; stroke: #b0b0b0; stroke-width: 0.8; stroke-linecap: square"/>
     </g>
     <g id="line2d_19">
      <g>
       <use xlink:href="#m3eecdf7787" x="350.191913" y="258.78" style="stroke: #000000; stroke-width: 0.8"/>
      </g>
     </g>
    </g>
    <g id="xtick_7">
     <g id="line2d_20">
      <path d="M 483.366137 258.78 
L 483.366137 168.18 
" clip-path="url(#p8c8c25d95b)" style="fill: none; stroke: #b0b0b0; stroke-width: 0.8; stroke-linecap: square"/>
     </g>
     <g id="line2d_21">
      <g>
       <use xlink:href="#m3eecdf7787" x="483.366137" y="258.78" style="stroke: #000000; stroke-width: 0.8"/>
      </g>
     </g>
    </g>
    <g id="xtick_8">
     <g id="line2d_22">
      <path d="M 616.540362 258.78 
L 616.540362 168.18 
" clip-path="url(#p8c8c25d95b)" style="fill: none; stroke: #b0b0b0; stroke-width: 0.8; stroke-linecap: square"/>
     </g>
     <g id="line2d_23">
      <g>
       <use xlink:href="#m3eecdf7787" x="616.540362" y="258.78" style="stroke: #000000; stroke-width: 0.8"/>
      </g>
     </g>
    </g>
   </g>
   <g id="matplotlib.axis_4">
    <g id="ytick_4">
     <g id="line2d_24">
      <path d="M 58.540362 258.78 
L 616.540362 258.78 
" clip-path="url(#p8c8c25d95b)" style="fill: none; stroke: #b0b0b0; stroke-width: 0.8; stroke-linecap: square"/>
     </g>
     <g id="line2d_25">
      <g>
       <use xlink:href="#m7e1444745f" x="58.540362" y="258.78" style="stroke: #000000; stroke-width: 0.8"/>
      </g>
     </g>
     <g id="text_6">
      <!-- $\mathdefault{0}$ -->
      <g transform="translate(43.736375 264.458656)scale(0.16 -0.16)">
       <use xlink:href="#CMR17-30" transform="scale(0.996264)"/>
      </g>
     </g>
    </g>
    <g id="ytick_5">
     <g id="line2d_26">
      <path d="M 58.540362 213.48 
L 616.540362 213.48 
" clip-path="url(#p8c8c25d95b)" style="fill: none; stroke: #b0b0b0; stroke-width: 0.8; stroke-linecap: square"/>
     </g>
     <g id="line2d_27">
      <g>
       <use xlink:href="#m7e1444745f" x="58.540362" y="213.48" style="stroke: #000000; stroke-width: 0.8"/>
      </g>
     </g>
     <g id="text_7">
      <!-- $\mathdefault{50}$ -->
      <g transform="translate(35.932388 219.158656)scale(0.16 -0.16)">
       <use xlink:href="#CMR17-35" transform="scale(0.996264)"/>
       <use xlink:href="#CMR17-30" transform="translate(45.690477 0)scale(0.996264)"/>
      </g>
     </g>
    </g>
    <g id="ytick_6">
     <g id="line2d_28">
      <path d="M 58.540362 168.18 
L 616.540362 168.18 
" clip-path="url(#p8c8c25d95b)" style="fill: none; stroke: #b0b0b0; stroke-width: 0.8; stroke-linecap: square"/>
     </g>
     <g id="line2d_29">
      <g>
       <use xlink:href="#m7e1444745f" x="58.540362" y="168.18" style="stroke: #000000; stroke-width: 0.8"/>
      </g>
     </g>
     <g id="text_8">
      <!-- $\mathdefault{100}$ -->
      <g transform="translate(28.128401 173.858656)scale(0.16 -0.16)">
       <use xlink:href="#CMR17-31" transform="scale(0.996264)"/>
       <use xlink:href="#CMR17-30" transform="translate(45.690477 0)scale(0.996264)"/>
       <use xlink:href="#CMR17-30" transform="translate(91.380954 0)scale(0.996264)"/>
      </g>
     </g>
    </g>
    <g id="text_9">
     <!-- Variance (\%) -->
     <g transform="translate(20.308831 264.802867)rotate(-90)scale(0.18 -0.18)">
      <use xlink:href="#NimbusSanL-Regu-56" transform="scale(0.996264)"/>
      <use xlink:href="#NimbusSanL-Regu-61" transform="translate(59.476685 0)scale(0.996264)"/>
      <use xlink:href="#NimbusSanL-Regu-72" transform="translate(114.868362 0)scale(0.996264)"/>
      <use xlink:href="#NimbusSanL-Regu-69" transform="translate(149.536969 0)scale(0.996264)"/>
      <use xlink:href="#NimbusSanL-Regu-61" transform="translate(171.653753 0)scale(0.996264)"/>
      <use xlink:href="#NimbusSanL-Regu-6e" transform="translate(227.04543 0)scale(0.996264)"/>
      <use xlink:href="#NimbusSanL-Regu-63" transform="translate(282.437107 0)scale(0.996264)"/>
      <use xlink:href="#NimbusSanL-Regu-65" transform="translate(332.250308 0)scale(0.996264)"/>
      <use xlink:href="#NimbusSanL-Regu-28" transform="translate(415.337154 0)scale(0.996264)"/>
      <use xlink:href="#NimbusSanL-Regu-25" transform="translate(448.512384 0)scale(0.996264)"/>
      <use xlink:href="#NimbusSanL-Regu-29" transform="translate(537.079291 0)scale(0.996264)"/>
     </g>
    </g>
   </g>
   <g id="line2d_30">
    <g clip-path="url(#p8c8c25d95b)">
     <use xlink:href="#mb8a568f026" x="83.843464" y="204.11618" style="fill: #1f77b4; stroke: #1f77b4; stroke-width: 3"/>
     <use xlink:href="#mb8a568f026" x="110.478309" y="233.540188" style="fill: #1f77b4; stroke: #1f77b4; stroke-width: 3"/>
     <use xlink:href="#mb8a568f026" x="137.113154" y="253.232735" style="fill: #1f77b4; stroke: #1f77b4; stroke-width: 3"/>
     <use xlink:href="#mb8a568f026" x="163.747999" y="256.593093" style="fill: #1f77b4; stroke: #1f77b4; stroke-width: 3"/>
     <use xlink:href="#mb8a568f026" x="190.382844" y="257.46957" style="fill: #1f77b4; stroke: #1f77b4; stroke-width: 3"/>
     <use xlink:href="#mb8a568f026" x="217.017689" y="257.899397" style="fill: #1f77b4; stroke: #1f77b4; stroke-width: 3"/>
     <use xlink:href="#mb8a568f026" x="243.652534" y="258.214666" style="fill: #1f77b4; stroke: #1f77b4; stroke-width: 3"/>
     <use xlink:href="#mb8a568f026" x="270.287379" y="258.648821" style="fill: #1f77b4; stroke: #1f77b4; stroke-width: 3"/>
     <use xlink:href="#mb8a568f026" x="296.922223" y="258.722789" style="fill: #1f77b4; stroke: #1f77b4; stroke-width: 3"/>
     <use xlink:href="#mb8a568f026" x="323.557068" y="258.771764" style="fill: #1f77b4; stroke: #1f77b4; stroke-width: 3"/>
     <use xlink:href="#mb8a568f026" x="350.191913" y="258.773573" style="fill: #1f77b4; stroke: #1f77b4; stroke-width: 3"/>
     <use xlink:href="#mb8a568f026" x="376.826758" y="258.77824" style="fill: #1f77b4; stroke: #1f77b4; stroke-width: 3"/>
     <use xlink:href="#mb8a568f026" x="403.461603" y="258.779054" style="fill: #1f77b4; stroke: #1f77b4; stroke-width: 3"/>
     <use xlink:href="#mb8a568f026" x="430.096448" y="258.779957" style="fill: #1f77b4; stroke: #1f77b4; stroke-width: 3"/>
     <use xlink:href="#mb8a568f026" x="456.731293" y="258.779982" style="fill: #1f77b4; stroke: #1f77b4; stroke-width: 3"/>
     <use xlink:href="#mb8a568f026" x="483.366137" y="258.779991" style="fill: #1f77b4; stroke: #1f77b4; stroke-width: 3"/>
    </g>
   </g>
   <g id="patch_8">
    <path d="M 58.540362 258.78 
L 58.540362 168.18 
" style="fill: none; stroke: #000000; stroke-width: 0.8; stroke-linejoin: miter; stroke-linecap: square"/>
   </g>
   <g id="patch_9">
    <path d="M 616.540362 258.78 
L 616.540362 168.18 
" style="fill: none; stroke: #000000; stroke-width: 0.8; stroke-linejoin: miter; stroke-linecap: square"/>
   </g>
   <g id="patch_10">
    <path d="M 58.540362 258.78 
L 616.540362 258.78 
" style="fill: none; stroke: #000000; stroke-width: 0.8; stroke-linejoin: miter; stroke-linecap: square"/>
   </g>
   <g id="patch_11">
    <path d="M 58.540362 168.18 
L 616.540362 168.18 
" style="fill: none; stroke: #000000; stroke-width: 0.8; stroke-linejoin: miter; stroke-linecap: square"/>
   </g>
   <g id="text_10">
    <!-- Dry Bean Data -->
    <g transform="translate(278.470659 162.18)scale(0.18 -0.18)">
     <defs>
      <path id="NimbusSanL-Regu-79" d="M 2483 3360 
L 1555 738 
L 698 3360 
L 128 3360 
L 1261 -21 
L 1056 -554 
C 973 -792 851 -882 627 -882 
C 550 -882 461 -869 346 -843 
L 346 -1325 
C 454 -1382 563 -1408 704 -1408 
C 877 -1408 1062 -1350 1203 -1247 
C 1370 -1125 1466 -983 1568 -713 
L 3059 3360 
L 2483 3360 
z
" transform="scale(0.015625)"/>
      <path id="NimbusSanL-Regu-42" d="M 506 0 
L 2611 0 
C 3053 0 3379 121 3629 388 
C 3859 629 3987 959 3987 1322 
C 3987 1881 3731 2217 3136 2446 
C 3558 2647 3782 2996 3782 3475 
C 3782 3817 3654 4122 3411 4342 
C 3168 4568 2848 4672 2400 4672 
L 506 4672 
L 506 0 
z
M 1101 2638 
L 1101 4146 
L 2253 4146 
C 2586 4146 2771 4100 2931 3977 
C 3098 3847 3187 3652 3187 3391 
C 3187 3138 3098 2937 2931 2806 
C 2771 2683 2586 2638 2253 2638 
L 1101 2638 
z
M 1101 526 
L 1101 2112 
L 2554 2112 
C 2842 2112 3034 2042 3174 1891 
C 3315 1745 3392 1543 3392 1316 
C 3392 1095 3315 893 3174 747 
C 3034 595 2842 526 2554 526 
L 1101 526 
z
" transform="scale(0.015625)"/>
     </defs>
     <use xlink:href="#NimbusSanL-Regu-44" transform="scale(0.996264)"/>
     <use xlink:href="#NimbusSanL-Regu-72" transform="translate(71.929985 0)scale(0.996264)"/>
     <use xlink:href="#NimbusSanL-Regu-79" transform="translate(108.093307 0)scale(0.996264)"/>
     <use xlink:href="#NimbusSanL-Regu-42" transform="translate(185.601677 0)scale(0.996264)"/>
     <use xlink:href="#NimbusSanL-Regu-65" transform="translate(252.051709 0)scale(0.996264)"/>
     <use xlink:href="#NimbusSanL-Regu-61" transform="translate(307.443386 0)scale(0.996264)"/>
     <use xlink:href="#NimbusSanL-Regu-6e" transform="translate(362.835062 0)scale(0.996264)"/>
     <use xlink:href="#NimbusSanL-Regu-44" transform="translate(445.921909 0)scale(0.996264)"/>
     <use xlink:href="#NimbusSanL-Regu-61" transform="translate(517.851894 0)scale(0.996264)"/>
     <use xlink:href="#NimbusSanL-Regu-74" transform="translate(573.243571 0)scale(0.996264)"/>
     <use xlink:href="#NimbusSanL-Regu-61" transform="translate(600.93874 0)scale(0.996264)"/>
    </g>
   </g>
  </g>
  <g id="axes_3">
   <g id="patch_12">
    <path d="M 58.540362 376.56 
L 616.540362 376.56 
L 616.540362 285.96 
L 58.540362 285.96 
z
" style="fill: #ffffff"/>
   </g>
   <g id="matplotlib.axis_5">
    <g id="xtick_9">
     <g id="line2d_31">
      <path d="M 217.017689 376.56 
L 217.017689 285.96 
" clip-path="url(#p02a9da6a40)" style="fill: none; stroke: #b0b0b0; stroke-width: 0.8; stroke-linecap: square"/>
     </g>
     <g id="line2d_32">
      <g>
       <use xlink:href="#m3eecdf7787" x="217.017689" y="376.56" style="stroke: #000000; stroke-width: 0.8"/>
      </g>
     </g>
     <g id="text_11">
      <!-- $\mathdefault{5}$ -->
      <g transform="translate(213.115695 394.917312)scale(0.16 -0.16)">
       <use xlink:href="#CMR17-35" transform="scale(0.996264)"/>
      </g>
     </g>
    </g>
    <g id="xtick_10">
     <g id="line2d_33">
      <path d="M 350.191913 376.56 
L 350.191913 285.96 
" clip-path="url(#p02a9da6a40)" style="fill: none; stroke: #b0b0b0; stroke-width: 0.8; stroke-linecap: square"/>
     </g>
     <g id="line2d_34">
      <g>
       <use xlink:href="#m3eecdf7787" x="350.191913" y="376.56" style="stroke: #000000; stroke-width: 0.8"/>
      </g>
     </g>
     <g id="text_12">
      <!-- $\mathdefault{10}$ -->
      <g transform="translate(342.387926 394.917312)scale(0.16 -0.16)">
       <use xlink:href="#CMR17-31" transform="scale(0.996264)"/>
       <use xlink:href="#CMR17-30" transform="translate(45.690477 0)scale(0.996264)"/>
      </g>
     </g>
    </g>
    <g id="xtick_11">
     <g id="line2d_35">
      <path d="M 483.366137 376.56 
L 483.366137 285.96 
" clip-path="url(#p02a9da6a40)" style="fill: none; stroke: #b0b0b0; stroke-width: 0.8; stroke-linecap: square"/>
     </g>
     <g id="line2d_36">
      <g>
       <use xlink:href="#m3eecdf7787" x="483.366137" y="376.56" style="stroke: #000000; stroke-width: 0.8"/>
      </g>
     </g>
     <g id="text_13">
      <!-- $\mathdefault{15}$ -->
      <g transform="translate(475.56215 394.917312)scale(0.16 -0.16)">
       <use xlink:href="#CMR17-31" transform="scale(0.996264)"/>
       <use xlink:href="#CMR17-35" transform="translate(45.690477 0)scale(0.996264)"/>
      </g>
     </g>
    </g>
    <g id="xtick_12">
     <g id="line2d_37">
      <path d="M 616.540362 376.56 
L 616.540362 285.96 
" clip-path="url(#p02a9da6a40)" style="fill: none; stroke: #b0b0b0; stroke-width: 0.8; stroke-linecap: square"/>
     </g>
     <g id="line2d_38">
      <g>
       <use xlink:href="#m3eecdf7787" x="616.540362" y="376.56" style="stroke: #000000; stroke-width: 0.8"/>
      </g>
     </g>
     <g id="text_14">
      <!-- $\mathdefault{20}$ -->
      <g transform="translate(608.736375 394.917312)scale(0.16 -0.16)">
       <defs>
        <path id="CMR17-32" d="M 2669 989 
L 2554 989 
C 2490 536 2438 459 2413 420 
C 2381 369 1920 369 1830 369 
L 602 369 
C 832 619 1280 1072 1824 1597 
C 2214 1967 2669 2402 2669 3035 
C 2669 3790 2067 4224 1395 4224 
C 691 4224 262 3604 262 3030 
C 262 2780 448 2748 525 2748 
C 589 2748 781 2787 781 3010 
C 781 3207 614 3264 525 3264 
C 486 3264 448 3258 422 3245 
C 544 3790 915 4058 1306 4058 
C 1862 4058 2227 3617 2227 3035 
C 2227 2479 1901 2000 1536 1584 
L 262 146 
L 262 0 
L 2515 0 
L 2669 989 
z
" transform="scale(0.015625)"/>
       </defs>
       <use xlink:href="#CMR17-32" transform="scale(0.996264)"/>
       <use xlink:href="#CMR17-30" transform="translate(45.690477 0)scale(0.996264)"/>
      </g>
     </g>
    </g>
    <g id="text_15">
     <!-- Principal Component -->
     <g transform="translate(254.18997 415.421325)scale(0.18 -0.18)">
      <defs>
       <path id="NimbusSanL-Regu-50" d="M 1178 1984 
L 2643 1984 
C 3008 1984 3296 2093 3546 2316 
C 3827 2573 3949 2873 3949 3303 
C 3949 4179 3430 4672 2509 4672 
L 582 4672 
L 582 -14 
L 1178 -14 
L 1178 1984 
z
M 1178 2510 
L 1178 4146 
L 2419 4146 
C 2989 4146 3328 3839 3328 3327 
C 3328 2816 2989 2510 2419 2510 
L 1178 2510 
z
" transform="scale(0.015625)"/>
       <path id="NimbusSanL-Regu-70" d="M 346 -1408 
L 883 -1408 
L 883 320 
C 1165 -27 1478 -180 1914 -180 
C 2778 -180 3347 522 3347 1599 
C 3347 2734 2797 3444 1907 3444 
C 1453 3444 1088 3238 838 2841 
L 838 3349 
L 346 3349 
L 346 -1408 
z
M 1818 2944 
C 2406 2944 2790 2420 2790 1612 
C 2790 843 2400 320 1818 320 
C 1254 320 883 837 883 1632 
C 883 2427 1254 2944 1818 2944 
z
" transform="scale(0.015625)"/>
       <path id="NimbusSanL-Regu-6c" d="M 973 4672 
L 435 4672 
L 435 -2 
L 973 -2 
L 973 4672 
z
" transform="scale(0.015625)"/>
       <path id="NimbusSanL-Regu-43" d="M 4237 3229 
C 4051 4252 3462 4750 2438 4750 
C 1811 4750 1306 4552 960 4168 
C 538 3709 307 3045 307 2291 
C 307 1525 544 868 986 414 
C 1344 44 1805 -128 2413 -128 
C 3552 -128 4192 485 4333 1717 
L 3718 1717 
C 3667 1399 3603 1182 3507 997 
C 3315 614 2918 397 2419 397 
C 1491 397 902 1137 902 2298 
C 902 3491 1466 4224 2368 4224 
C 2746 4224 3098 4110 3290 3930 
C 3462 3771 3558 3573 3629 3229 
L 4237 3229 
z
" transform="scale(0.015625)"/>
       <path id="NimbusSanL-Regu-6f" d="M 1741 3456 
C 800 3456 230 2786 230 1663 
C 230 541 794 -128 1747 -128 
C 2688 -128 3264 541 3264 1638 
C 3264 2792 2707 3456 1741 3456 
z
M 1747 2962 
C 2349 2962 2707 2472 2707 1645 
C 2707 861 2336 365 1747 365 
C 1152 365 787 855 787 1663 
C 787 2466 1152 2962 1747 2962 
z
" transform="scale(0.015625)"/>
       <path id="NimbusSanL-Regu-6d" d="M 448 3359 
L 448 0 
L 986 0 
L 986 2109 
C 986 2597 1338 2988 1773 2988 
C 2170 2988 2394 2744 2394 2314 
L 2394 0 
L 2931 0 
L 2931 2109 
C 2931 2597 3283 2988 3718 2988 
C 4109 2988 4339 2738 4339 2314 
L 4339 0 
L 4877 0 
L 4877 2520 
C 4877 3122 4531 3456 3904 3456 
C 3456 3456 3187 3321 2874 2943 
C 2675 3302 2406 3456 1971 3456 
C 1523 3456 1229 3289 941 2885 
L 941 3359 
L 448 3359 
z
" transform="scale(0.015625)"/>
      </defs>
      <use xlink:href="#NimbusSanL-Regu-50" transform="scale(0.996264)"/>
      <use xlink:href="#NimbusSanL-Regu-72" transform="translate(66.450031 0)scale(0.996264)"/>
      <use xlink:href="#NimbusSanL-Regu-69" transform="translate(101.118638 0)scale(0.996264)"/>
      <use xlink:href="#NimbusSanL-Regu-6e" transform="translate(123.235423 0)scale(0.996264)"/>
      <use xlink:href="#NimbusSanL-Regu-63" transform="translate(178.6271 0)scale(0.996264)"/>
      <use xlink:href="#NimbusSanL-Regu-69" transform="translate(228.4403 0)scale(0.996264)"/>
      <use xlink:href="#NimbusSanL-Regu-70" transform="translate(250.557085 0)scale(0.996264)"/>
      <use xlink:href="#NimbusSanL-Regu-61" transform="translate(305.948761 0)scale(0.996264)"/>
      <use xlink:href="#NimbusSanL-Regu-6c" transform="translate(361.340438 0)scale(0.996264)"/>
      <use xlink:href="#NimbusSanL-Regu-43" transform="translate(411.152392 0)scale(0.996264)"/>
      <use xlink:href="#NimbusSanL-Regu-6f" transform="translate(483.082377 0)scale(0.996264)"/>
      <use xlink:href="#NimbusSanL-Regu-6d" transform="translate(538.474054 0)scale(0.996264)"/>
      <use xlink:href="#NimbusSanL-Regu-70" transform="translate(621.462484 0)scale(0.996264)"/>
      <use xlink:href="#NimbusSanL-Regu-6f" transform="translate(676.854161 0)scale(0.996264)"/>
      <use xlink:href="#NimbusSanL-Regu-6e" transform="translate(732.245838 0)scale(0.996264)"/>
      <use xlink:href="#NimbusSanL-Regu-65" transform="translate(787.637515 0)scale(0.996264)"/>
      <use xlink:href="#NimbusSanL-Regu-6e" transform="translate(843.029192 0)scale(0.996264)"/>
      <use xlink:href="#NimbusSanL-Regu-74" transform="translate(898.420869 0)scale(0.996264)"/>
     </g>
    </g>
   </g>
   <g id="matplotlib.axis_6">
    <g id="ytick_7">
     <g id="line2d_39">
      <path d="M 58.540362 376.56 
L 616.540362 376.56 
" clip-path="url(#p02a9da6a40)" style="fill: none; stroke: #b0b0b0; stroke-width: 0.8; stroke-linecap: square"/>
     </g>
     <g id="line2d_40">
      <g>
       <use xlink:href="#m7e1444745f" x="58.540362" y="376.56" style="stroke: #000000; stroke-width: 0.8"/>
      </g>
     </g>
     <g id="text_16">
      <!-- $\mathdefault{0}$ -->
      <g transform="translate(43.736375 382.238656)scale(0.16 -0.16)">
       <use xlink:href="#CMR17-30" transform="scale(0.996264)"/>
      </g>
     </g>
    </g>
    <g id="ytick_8">
     <g id="line2d_41">
      <path d="M 58.540362 331.26 
L 616.540362 331.26 
" clip-path="url(#p02a9da6a40)" style="fill: none; stroke: #b0b0b0; stroke-width: 0.8; stroke-linecap: square"/>
     </g>
     <g id="line2d_42">
      <g>
       <use xlink:href="#m7e1444745f" x="58.540362" y="331.26" style="stroke: #000000; stroke-width: 0.8"/>
      </g>
     </g>
     <g id="text_17">
      <!-- $\mathdefault{50}$ -->
      <g transform="translate(35.932388 336.938656)scale(0.16 -0.16)">
       <use xlink:href="#CMR17-35" transform="scale(0.996264)"/>
       <use xlink:href="#CMR17-30" transform="translate(45.690477 0)scale(0.996264)"/>
      </g>
     </g>
    </g>
    <g id="ytick_9">
     <g id="line2d_43">
      <path d="M 58.540362 285.96 
L 616.540362 285.96 
" clip-path="url(#p02a9da6a40)" style="fill: none; stroke: #b0b0b0; stroke-width: 0.8; stroke-linecap: square"/>
     </g>
     <g id="line2d_44">
      <g>
       <use xlink:href="#m7e1444745f" x="58.540362" y="285.96" style="stroke: #000000; stroke-width: 0.8"/>
      </g>
     </g>
     <g id="text_18">
      <!-- $\mathdefault{100}$ -->
      <g transform="translate(28.128401 291.638656)scale(0.16 -0.16)">
       <use xlink:href="#CMR17-31" transform="scale(0.996264)"/>
       <use xlink:href="#CMR17-30" transform="translate(45.690477 0)scale(0.996264)"/>
       <use xlink:href="#CMR17-30" transform="translate(91.380954 0)scale(0.996264)"/>
      </g>
     </g>
    </g>
    <g id="text_19">
     <!-- Variance (\%) -->
     <g transform="translate(20.308831 382.582867)rotate(-90)scale(0.18 -0.18)">
      <use xlink:href="#NimbusSanL-Regu-56" transform="scale(0.996264)"/>
      <use xlink:href="#NimbusSanL-Regu-61" transform="translate(59.476685 0)scale(0.996264)"/>
      <use xlink:href="#NimbusSanL-Regu-72" transform="translate(114.868362 0)scale(0.996264)"/>
      <use xlink:href="#NimbusSanL-Regu-69" transform="translate(149.536969 0)scale(0.996264)"/>
      <use xlink:href="#NimbusSanL-Regu-61" transform="translate(171.653753 0)scale(0.996264)"/>
      <use xlink:href="#NimbusSanL-Regu-6e" transform="translate(227.04543 0)scale(0.996264)"/>
      <use xlink:href="#NimbusSanL-Regu-63" transform="translate(282.437107 0)scale(0.996264)"/>
      <use xlink:href="#NimbusSanL-Regu-65" transform="translate(332.250308 0)scale(0.996264)"/>
      <use xlink:href="#NimbusSanL-Regu-28" transform="translate(415.337154 0)scale(0.996264)"/>
      <use xlink:href="#NimbusSanL-Regu-25" transform="translate(448.512384 0)scale(0.996264)"/>
      <use xlink:href="#NimbusSanL-Regu-29" transform="translate(537.079291 0)scale(0.996264)"/>
     </g>
    </g>
   </g>
   <g id="line2d_45">
    <g clip-path="url(#p02a9da6a40)">
     <use xlink:href="#mb8a568f026" x="83.843464" y="350.216573" style="fill: #1f77b4; stroke: #1f77b4; stroke-width: 3"/>
     <use xlink:href="#mb8a568f026" x="110.478309" y="366.364652" style="fill: #1f77b4; stroke: #1f77b4; stroke-width: 3"/>
     <use xlink:href="#mb8a568f026" x="137.113154" y="370.494861" style="fill: #1f77b4; stroke: #1f77b4; stroke-width: 3"/>
     <use xlink:href="#mb8a568f026" x="163.747999" y="373.229128" style="fill: #1f77b4; stroke: #1f77b4; stroke-width: 3"/>
     <use xlink:href="#mb8a568f026" x="190.382844" y="373.290388" style="fill: #1f77b4; stroke: #1f77b4; stroke-width: 3"/>
     <use xlink:href="#mb8a568f026" x="217.017689" y="374.014838" style="fill: #1f77b4; stroke: #1f77b4; stroke-width: 3"/>
     <use xlink:href="#mb8a568f026" x="243.652534" y="374.102029" style="fill: #1f77b4; stroke: #1f77b4; stroke-width: 3"/>
     <use xlink:href="#mb8a568f026" x="270.287379" y="374.596551" style="fill: #1f77b4; stroke: #1f77b4; stroke-width: 3"/>
     <use xlink:href="#mb8a568f026" x="296.922223" y="374.689435" style="fill: #1f77b4; stroke: #1f77b4; stroke-width: 3"/>
     <use xlink:href="#mb8a568f026" x="323.557068" y="375.257171" style="fill: #1f77b4; stroke: #1f77b4; stroke-width: 3"/>
     <use xlink:href="#mb8a568f026" x="350.191913" y="375.37263" style="fill: #1f77b4; stroke: #1f77b4; stroke-width: 3"/>
     <use xlink:href="#mb8a568f026" x="376.826758" y="375.594224" style="fill: #1f77b4; stroke: #1f77b4; stroke-width: 3"/>
     <use xlink:href="#mb8a568f026" x="403.461603" y="375.608717" style="fill: #1f77b4; stroke: #1f77b4; stroke-width: 3"/>
     <use xlink:href="#mb8a568f026" x="430.096448" y="375.650133" style="fill: #1f77b4; stroke: #1f77b4; stroke-width: 3"/>
     <use xlink:href="#mb8a568f026" x="456.731293" y="375.727855" style="fill: #1f77b4; stroke: #1f77b4; stroke-width: 3"/>
     <use xlink:href="#mb8a568f026" x="483.366137" y="375.819435" style="fill: #1f77b4; stroke: #1f77b4; stroke-width: 3"/>
     <use xlink:href="#mb8a568f026" x="510.000982" y="375.889915" style="fill: #1f77b4; stroke: #1f77b4; stroke-width: 3"/>
     <use xlink:href="#mb8a568f026" x="536.635827" y="375.911186" style="fill: #1f77b4; stroke: #1f77b4; stroke-width: 3"/>
     <use xlink:href="#mb8a568f026" x="563.270672" y="375.937151" style="fill: #1f77b4; stroke: #1f77b4; stroke-width: 3"/>
     <use xlink:href="#mb8a568f026" x="589.905517" y="375.977221" style="fill: #1f77b4; stroke: #1f77b4; stroke-width: 3"/>
    </g>
   </g>
   <g id="patch_13">
    <path d="M 58.540362 376.56 
L 58.540362 285.96 
" style="fill: none; stroke: #000000; stroke-width: 0.8; stroke-linejoin: miter; stroke-linecap: square"/>
   </g>
   <g id="patch_14">
    <path d="M 616.540362 376.56 
L 616.540362 285.96 
" style="fill: none; stroke: #000000; stroke-width: 0.8; stroke-linejoin: miter; stroke-linecap: square"/>
   </g>
   <g id="patch_15">
    <path d="M 58.540362 376.56 
L 616.540362 376.56 
" style="fill: none; stroke: #000000; stroke-width: 0.8; stroke-linejoin: miter; stroke-linecap: square"/>
   </g>
   <g id="patch_16">
    <path d="M 58.540362 285.96 
L 616.540362 285.96 
" style="fill: none; stroke: #000000; stroke-width: 0.8; stroke-linejoin: miter; stroke-linecap: square"/>
   </g>
   <g id="text_20">
    <!-- CIFAR10 Data (top 20 dims) -->
    <g transform="translate(225.148234 279.96)scale(0.18 -0.18)">
     <defs>
      <path id="NimbusSanL-Regu-49" d="M 1242 4672 
L 640 4672 
L 640 -2 
L 1242 -2 
L 1242 4672 
z
" transform="scale(0.015625)"/>
      <path id="NimbusSanL-Regu-46" d="M 1171 2112 
L 3398 2112 
L 3398 2638 
L 1171 2638 
L 1171 4146 
L 3706 4146 
L 3706 4672 
L 576 4672 
L 576 -14 
L 1171 -14 
L 1171 2112 
z
" transform="scale(0.015625)"/>
      <path id="NimbusSanL-Regu-41" d="M 3034 1408 
L 3514 0 
L 4179 0 
L 2541 4672 
L 1773 4672 
L 109 0 
L 742 0 
L 1235 1408 
L 3034 1408 
z
M 2867 1908 
L 1382 1908 
L 2150 4032 
L 2867 1908 
z
" transform="scale(0.015625)"/>
      <path id="NimbusSanL-Regu-31" d="M 1658 3238 
L 1658 0 
L 2221 0 
L 2221 4545 
L 1850 4545 
C 1651 3847 1523 3751 653 3642 
L 653 3238 
L 1658 3238 
z
" transform="scale(0.015625)"/>
      <path id="NimbusSanL-Regu-30" d="M 1760 4544 
C 1338 4544 954 4360 717 4046 
C 422 3651 275 3044 275 2208 
C 275 683 787 -128 1760 -128 
C 2720 -128 3245 683 3245 2170 
C 3245 3050 3104 3638 2803 4046 
C 2566 4366 2189 4544 1760 4544 
z
M 1760 4044 
C 2368 4044 2669 3432 2669 2221 
C 2669 939 2374 340 1747 340 
C 1152 340 851 965 851 2202 
C 851 3438 1152 4044 1760 4044 
z
" transform="scale(0.015625)"/>
      <path id="NimbusSanL-Regu-32" d="M 3238 558 
L 851 558 
C 909 930 1114 1167 1670 1494 
L 2310 1840 
C 2944 2186 3270 2653 3270 3211 
C 3270 3589 3117 3942 2848 4185 
C 2579 4429 2246 4544 1818 4544 
C 1242 4544 813 4339 563 3955 
C 403 3711 333 3429 320 2967 
L 883 2967 
C 902 3275 941 3461 1018 3608 
C 1165 3884 1459 4051 1798 4051 
C 2310 4051 2694 3685 2694 3198 
C 2694 2839 2483 2531 2080 2301 
L 1491 1968 
C 544 1430 269 1000 218 0 
L 3238 0 
L 3238 558 
z
" transform="scale(0.015625)"/>
      <path id="NimbusSanL-Regu-64" d="M 3168 4672 
L 2637 4672 
L 2637 2937 
C 2413 3276 2054 3456 1606 3456 
C 736 3456 166 2761 166 1695 
C 166 566 723 -128 1626 -128 
C 2086 -128 2406 45 2694 461 
L 2694 -2 
L 3168 -2 
L 3168 4672 
z
M 1696 2956 
C 2272 2956 2637 2447 2637 1651 
C 2637 881 2266 372 1702 372 
C 1114 372 723 887 723 1664 
C 723 2440 1114 2956 1696 2956 
z
" transform="scale(0.015625)"/>
      <path id="NimbusSanL-Regu-73" d="M 2803 2427 
C 2797 3085 2362 3456 1587 3456 
C 806 3456 301 3054 301 2436 
C 301 1913 570 1665 1363 1474 
L 1862 1353 
C 2234 1263 2381 1130 2381 888 
C 2381 576 2067 365 1600 365 
C 1312 365 1069 448 934 588 
C 851 684 813 779 781 1014 
L 218 1014 
C 243 241 678 -128 1555 -128 
C 2400 -128 2938 285 2938 929 
C 2938 1426 2656 1701 1990 1860 
L 1478 1981 
C 1043 2082 858 2223 858 2458 
C 858 2764 1133 2962 1568 2962 
C 1997 2962 2227 2777 2240 2427 
L 2803 2427 
z
" transform="scale(0.015625)"/>
     </defs>
     <use xlink:href="#NimbusSanL-Regu-43" transform="scale(0.996264)"/>
     <use xlink:href="#NimbusSanL-Regu-49" transform="translate(71.929985 0)scale(0.996264)"/>
     <use xlink:href="#NimbusSanL-Regu-46" transform="translate(99.625154 0)scale(0.996264)"/>
     <use xlink:href="#NimbusSanL-Regu-41" transform="translate(152.527342 0)scale(0.996264)"/>
     <use xlink:href="#NimbusSanL-Regu-52" transform="translate(218.977373 0)scale(0.996264)"/>
     <use xlink:href="#NimbusSanL-Regu-31" transform="translate(290.907358 0)scale(0.996264)"/>
     <use xlink:href="#NimbusSanL-Regu-30" transform="translate(346.299035 0)scale(0.996264)"/>
     <use xlink:href="#NimbusSanL-Regu-44" transform="translate(429.385881 0)scale(0.996264)"/>
     <use xlink:href="#NimbusSanL-Regu-61" transform="translate(501.315866 0)scale(0.996264)"/>
     <use xlink:href="#NimbusSanL-Regu-74" transform="translate(556.707543 0)scale(0.996264)"/>
     <use xlink:href="#NimbusSanL-Regu-61" transform="translate(584.402713 0)scale(0.996264)"/>
     <use xlink:href="#NimbusSanL-Regu-28" transform="translate(667.489559 0)scale(0.996264)"/>
     <use xlink:href="#NimbusSanL-Regu-74" transform="translate(700.664789 0)scale(0.996264)"/>
     <use xlink:href="#NimbusSanL-Regu-6f" transform="translate(728.359959 0)scale(0.996264)"/>
     <use xlink:href="#NimbusSanL-Regu-70" transform="translate(783.751636 0)scale(0.996264)"/>
     <use xlink:href="#NimbusSanL-Regu-32" transform="translate(866.838482 0)scale(0.996264)"/>
     <use xlink:href="#NimbusSanL-Regu-30" transform="translate(922.230159 0)scale(0.996264)"/>
     <use xlink:href="#NimbusSanL-Regu-64" transform="translate(1005.317006 0)scale(0.996264)"/>
     <use xlink:href="#NimbusSanL-Regu-69" transform="translate(1060.708683 0)scale(0.996264)"/>
     <use xlink:href="#NimbusSanL-Regu-6d" transform="translate(1082.825467 0)scale(0.996264)"/>
     <use xlink:href="#NimbusSanL-Regu-73" transform="translate(1165.813897 0)scale(0.996264)"/>
     <use xlink:href="#NimbusSanL-Regu-29" transform="translate(1215.627098 0)scale(0.996264)"/>
    </g>
   </g>
  </g>
  <g id="text_21">
   <!-- Explained Variance by Principal Component for Varying Datasets -->
   <g transform="translate(42.466722 21.765375)scale(0.2 -0.2)">
    <defs>
     <path id="NimbusSanL-Regu-45" d="M 1171 2112 
L 3712 2112 
L 3712 2638 
L 1171 2638 
L 1171 4146 
L 3808 4146 
L 3808 4672 
L 576 4672 
L 576 0 
L 3923 0 
L 3923 526 
L 1171 526 
L 1171 2112 
z
" transform="scale(0.015625)"/>
     <path id="NimbusSanL-Regu-78" d="M 1869 1737 
L 2995 3359 
L 2394 3359 
L 1587 2141 
L 781 3359 
L 173 3359 
L 1293 1712 
L 109 0 
L 717 0 
L 1568 1288 
L 2406 0 
L 3027 0 
L 1869 1737 
z
" transform="scale(0.015625)"/>
     <path id="NimbusSanL-Regu-62" d="M 346 4672 
L 346 -2 
L 826 -2 
L 826 448 
C 1082 57 1421 -128 1888 -128 
C 2771 -128 3347 592 3347 1702 
C 3347 2786 2797 3456 1914 3456 
C 1453 3456 1126 3282 877 2905 
L 877 4672 
L 346 4672 
z
M 1811 2956 
C 2406 2956 2790 2440 2790 1645 
C 2790 887 2394 372 1811 372 
C 1248 372 877 881 877 1664 
C 877 2447 1248 2956 1811 2956 
z
" transform="scale(0.015625)"/>
     <path id="NimbusSanL-Regu-66" d="M 1651 3328 
L 1094 3328 
L 1094 3856 
C 1094 4082 1222 4198 1466 4198 
C 1510 4198 1530 4198 1651 4198 
L 1651 4640 
C 1530 4666 1459 4672 1350 4672 
C 858 4672 563 4388 563 3903 
L 563 3328 
L 115 3328 
L 115 2892 
L 563 2892 
L 563 -26 
L 1094 -26 
L 1094 2892 
L 1651 2892 
L 1651 3328 
z
" transform="scale(0.015625)"/>
     <path id="NimbusSanL-Regu-67" d="M 2637 3341 
L 2637 2854 
C 2368 3252 2042 3438 1613 3438 
C 762 3438 186 2692 186 1600 
C 186 1048 333 598 608 276 
C 858 -7 1216 -173 1568 -173 
C 1990 -173 2285 6 2586 429 
L 2586 258 
C 2586 -192 2528 -465 2394 -649 
C 2253 -844 1978 -959 1651 -959 
C 1408 -959 1190 -896 1043 -783 
C 922 -688 870 -600 838 -406 
L 294 -406 
C 352 -1033 845 -1408 1632 -1408 
C 2131 -1408 2560 -1247 2778 -979 
C 3034 -671 3130 -249 3130 538 
L 3130 3341 
L 2637 3341 
z
M 1670 2944 
C 2246 2944 2586 2455 2586 1613 
C 2586 808 2240 320 1677 320 
C 1094 320 742 816 742 1632 
C 742 2442 1101 2944 1670 2944 
z
" transform="scale(0.015625)"/>
    </defs>
    <use xlink:href="#NimbusSanL-Regu-45" transform="scale(0.996264)"/>
    <use xlink:href="#NimbusSanL-Regu-78" transform="translate(66.450031 0)scale(0.996264)"/>
    <use xlink:href="#NimbusSanL-Regu-70" transform="translate(116.263232 0)scale(0.996264)"/>
    <use xlink:href="#NimbusSanL-Regu-6c" transform="translate(171.654909 0)scale(0.996264)"/>
    <use xlink:href="#NimbusSanL-Regu-61" transform="translate(193.771693 0)scale(0.996264)"/>
    <use xlink:href="#NimbusSanL-Regu-69" transform="translate(249.16337 0)scale(0.996264)"/>
    <use xlink:href="#NimbusSanL-Regu-6e" transform="translate(271.280154 0)scale(0.996264)"/>
    <use xlink:href="#NimbusSanL-Regu-65" transform="translate(326.671831 0)scale(0.996264)"/>
    <use xlink:href="#NimbusSanL-Regu-64" transform="translate(382.063508 0)scale(0.996264)"/>
    <use xlink:href="#NimbusSanL-Regu-56" transform="translate(465.150355 0)scale(0.996264)"/>
    <use xlink:href="#NimbusSanL-Regu-61" transform="translate(524.627039 0)scale(0.996264)"/>
    <use xlink:href="#NimbusSanL-Regu-72" transform="translate(580.018716 0)scale(0.996264)"/>
    <use xlink:href="#NimbusSanL-Regu-69" transform="translate(614.687324 0)scale(0.996264)"/>
    <use xlink:href="#NimbusSanL-Regu-61" transform="translate(636.804108 0)scale(0.996264)"/>
    <use xlink:href="#NimbusSanL-Regu-6e" transform="translate(692.195785 0)scale(0.996264)"/>
    <use xlink:href="#NimbusSanL-Regu-63" transform="translate(747.587462 0)scale(0.996264)"/>
    <use xlink:href="#NimbusSanL-Regu-65" transform="translate(797.400662 0)scale(0.996264)"/>
    <use xlink:href="#NimbusSanL-Regu-62" transform="translate(880.487509 0)scale(0.996264)"/>
    <use xlink:href="#NimbusSanL-Regu-79" transform="translate(933.887175 0)scale(0.996264)"/>
    <use xlink:href="#NimbusSanL-Regu-50" transform="translate(1011.395545 0)scale(0.996264)"/>
    <use xlink:href="#NimbusSanL-Regu-72" transform="translate(1077.845576 0)scale(0.996264)"/>
    <use xlink:href="#NimbusSanL-Regu-69" transform="translate(1112.514183 0)scale(0.996264)"/>
    <use xlink:href="#NimbusSanL-Regu-6e" transform="translate(1134.630968 0)scale(0.996264)"/>
    <use xlink:href="#NimbusSanL-Regu-63" transform="translate(1190.022645 0)scale(0.996264)"/>
    <use xlink:href="#NimbusSanL-Regu-69" transform="translate(1239.835845 0)scale(0.996264)"/>
    <use xlink:href="#NimbusSanL-Regu-70" transform="translate(1261.952629 0)scale(0.996264)"/>
    <use xlink:href="#NimbusSanL-Regu-61" transform="translate(1317.344306 0)scale(0.996264)"/>
    <use xlink:href="#NimbusSanL-Regu-6c" transform="translate(1372.735983 0)scale(0.996264)"/>
    <use xlink:href="#NimbusSanL-Regu-43" transform="translate(1422.547937 0)scale(0.996264)"/>
    <use xlink:href="#NimbusSanL-Regu-6f" transform="translate(1494.477922 0)scale(0.996264)"/>
    <use xlink:href="#NimbusSanL-Regu-6d" transform="translate(1549.869599 0)scale(0.996264)"/>
    <use xlink:href="#NimbusSanL-Regu-70" transform="translate(1632.858029 0)scale(0.996264)"/>
    <use xlink:href="#NimbusSanL-Regu-6f" transform="translate(1688.249706 0)scale(0.996264)"/>
    <use xlink:href="#NimbusSanL-Regu-6e" transform="translate(1743.641383 0)scale(0.996264)"/>
    <use xlink:href="#NimbusSanL-Regu-65" transform="translate(1799.03306 0)scale(0.996264)"/>
    <use xlink:href="#NimbusSanL-Regu-6e" transform="translate(1854.424737 0)scale(0.996264)"/>
    <use xlink:href="#NimbusSanL-Regu-74" transform="translate(1909.816414 0)scale(0.996264)"/>
    <use xlink:href="#NimbusSanL-Regu-66" transform="translate(1965.206753 0)scale(0.996264)"/>
    <use xlink:href="#NimbusSanL-Regu-6f" transform="translate(1989.913815 0)scale(0.996264)"/>
    <use xlink:href="#NimbusSanL-Regu-72" transform="translate(2045.305492 0)scale(0.996264)"/>
    <use xlink:href="#NimbusSanL-Regu-56" transform="translate(2106.175891 0)scale(0.996264)"/>
    <use xlink:href="#NimbusSanL-Regu-61" transform="translate(2165.652576 0)scale(0.996264)"/>
    <use xlink:href="#NimbusSanL-Regu-72" transform="translate(2221.044253 0)scale(0.996264)"/>
    <use xlink:href="#NimbusSanL-Regu-79" transform="translate(2257.207575 0)scale(0.996264)"/>
    <use xlink:href="#NimbusSanL-Regu-69" transform="translate(2307.020776 0)scale(0.996264)"/>
    <use xlink:href="#NimbusSanL-Regu-6e" transform="translate(2329.13756 0)scale(0.996264)"/>
    <use xlink:href="#NimbusSanL-Regu-67" transform="translate(2384.529237 0)scale(0.996264)"/>
    <use xlink:href="#NimbusSanL-Regu-44" transform="translate(2467.616084 0)scale(0.996264)"/>
    <use xlink:href="#NimbusSanL-Regu-61" transform="translate(2539.546069 0)scale(0.996264)"/>
    <use xlink:href="#NimbusSanL-Regu-74" transform="translate(2594.937746 0)scale(0.996264)"/>
    <use xlink:href="#NimbusSanL-Regu-61" transform="translate(2622.632915 0)scale(0.996264)"/>
    <use xlink:href="#NimbusSanL-Regu-73" transform="translate(2678.024592 0)scale(0.996264)"/>
    <use xlink:href="#NimbusSanL-Regu-65" transform="translate(2727.837793 0)scale(0.996264)"/>
    <use xlink:href="#NimbusSanL-Regu-74" transform="translate(2783.22947 0)scale(0.996264)"/>
    <use xlink:href="#NimbusSanL-Regu-73" transform="translate(2810.924639 0)scale(0.996264)"/>
   </g>
  </g>
 </g>
 <defs>
  <clipPath id="pf209f1eedf">
   <rect x="58.540362" y="50.4" width="558" height="90.6"/>
  </clipPath>
  <clipPath id="p8c8c25d95b">
   <rect x="58.540362" y="168.18" width="558" height="90.6"/>
  </clipPath>
  <clipPath id="p02a9da6a40">
   <rect x="58.540362" y="285.96" width="558" height="90.6"/>
  </clipPath>
 </defs>
</svg>
